Latin-Mizra-SemiBold.ufo
<glyph name="exclam" format="1">
  <advance width="244"/>
  <unicode hex="0021"/>
  <outline>
    <contour>
      <point x="91" y="176" type="line"/>
      <point x="116" y="200"/>
      <point x="143" y="223"/>
      <point x="172" y="245" type="curve"/>
      <point x="172" y="369"/>
      <point x="177" y="493"/>
      <point x="184" y="547" type="curve"/>
      <point x="130" y="547"/>
      <point x="92" y="540"/>
      <point x="47" y="522" type="curve"/>
      <point x="59" y="500"/>
      <point x="66" y="438"/>
      <point x="66" y="362" type="curve" smooth="yes"/>
      <point x="66" y="176" type="line"/>
    </contour>
    <contour>
      <point x="153" y="11"/>
      <point x="179" y="37"/>
      <point x="204" y="68" type="curve"/>
      <point x="173" y="93"/>
      <point x="147" y="119"/>
      <point x="122" y="150" type="curve"/>
      <point x="91" y="125"/>
      <point x="65" y="99"/>
      <point x="39" y="68" type="curve"/>
      <point x="70" y="42"/>
      <point x="96" y="16"/>
      <point x="122" y="-15" type="curve"/>
    </contour>
  </outline>
</glyph>
<glyph name="dollar" format="1">
  <advance width="461"/>
  <unicode hex="0024"/>
  <outline>
    <contour>
      <point x="246" y="-86"/>
      <point x="260" y="-84"/>
      <point x="273" y="-80" type="curve"/>
      <point x="269" y="-63"/>
      <point x="266" y="-32"/>
      <point x="264" y="12" type="curve"/>
      <point x="375" y="22"/>
      <point x="429" y="72"/>
      <point x="429" y="151" type="curve" smooth="yes"/>
      <point x="429" y="311"/>
      <point x="158" y="306"/>
      <point x="158" y="399" type="curve" smooth="yes"/>
      <point x="158" y="425"/>
      <point x="185" y="442"/>
      <point x="205" y="445" type="curve"/>
      <point x="247" y="445"/>
      <point x="314" y="411"/>
      <point x="371" y="368" type="curve"/>
      <point x="391" y="396"/>
      <point x="409" y="452"/>
      <point x="409" y="489" type="curve"/>
      <point x="369" y="504"/>
      <point x="320" y="512"/>
      <point x="265" y="513" type="curve"/>
      <point x="266" y="550"/>
      <point x="267" y="581"/>
      <point x="269" y="607" type="curve"/>
      <point x="254" y="611"/>
      <point x="240" y="614"/>
      <point x="228" y="614" type="curve" smooth="yes"/>
      <point x="215" y="614"/>
      <point x="200" y="611"/>
      <point x="188" y="607" type="curve"/>
      <point x="191" y="588"/>
      <point x="194" y="556"/>
      <point x="195" y="510" type="curve"/>
      <point x="96" y="497"/>
      <point x="36" y="446"/>
      <point x="36" y="378" type="curve" smooth="yes"/>
      <point x="36" y="220"/>
      <point x="307" y="218"/>
      <point x="307" y="132" type="curve" smooth="yes"/>
      <point x="307" y="97"/>
      <point x="273" y="77"/>
      <point x="210" y="77" type="curve" smooth="yes"/>
      <point x="143" y="77"/>
      <point x="82" y="96"/>
      <point x="48" y="128" type="curve"/>
      <point x="36" y="102"/>
      <point x="31" y="79"/>
      <point x="31" y="45" type="curve"/>
      <point x="74" y="26"/>
      <point x="130" y="12"/>
      <point x="194" y="10" type="curve"/>
      <point x="193" y="-25"/>
      <point x="192" y="-56"/>
      <point x="191" y="-80" type="curve"/>
      <point x="207" y="-84"/>
      <point x="220" y="-86"/>
      <point x="233" y="-86" type="curve" smooth="yes"/>
    </contour>
    <contour>
      <point x="225" y="527" type="move" name="top"/>
    </contour>
    <contour>
      <point x="225" y="0" type="move" name="bottom"/>
    </contour>
  </outline>
</glyph>
<glyph name="ampersand" format="1">
  <advance width="563"/>
  <unicode hex="0026"/>
  <outline>
    <contour>
      <point x="260" y="-11"/>
      <point x="312" y="13"/>
      <point x="352" y="48" type="curve"/>
      <point x="410" y="-6" type="line"/>
      <point x="474" y="-6"/>
      <point x="516" y="0"/>
      <point x="558" y="15" type="curve"/>
      <point x="515" y="45"/>
      <point x="468" y="87"/>
      <point x="422" y="133" type="curve"/>
      <point x="458" y="188"/>
      <point x="485" y="249"/>
      <point x="519" y="294" type="curve"/>
      <point x="484" y="294"/>
      <point x="458" y="293"/>
      <point x="411" y="288" type="curve"/>
      <point x="408" y="248"/>
      <point x="399" y="208"/>
      <point x="383" y="174" type="curve"/>
      <point x="298" y="266"/>
      <point x="228" y="363"/>
      <point x="228" y="402" type="curve" smooth="yes"/>
      <point x="228" y="445"/>
      <point x="260" y="474"/>
      <point x="307" y="474" type="curve"/>
      <point x="355" y="453"/>
      <point x="396" y="421"/>
      <point x="431" y="378" type="curve"/>
      <point x="451" y="400"/>
      <point x="471" y="460"/>
      <point x="471" y="499" type="curve"/>
      <point x="428" y="521"/>
      <point x="375" y="533"/>
      <point x="318" y="533" type="curve" smooth="yes"/>
      <point x="191" y="533"/>
      <point x="112" y="479"/>
      <point x="112" y="394" type="curve" smooth="yes"/>
      <point x="112" y="362"/>
      <point x="126" y="324"/>
      <point x="156" y="277" type="curve"/>
      <point x="70" y="246"/>
      <point x="25" y="193"/>
      <point x="25" y="123" type="curve" smooth="yes"/>
      <point x="25" y="43"/>
      <point x="91" y="-11"/>
      <point x="188" y="-11" type="curve" smooth="yes"/>
    </contour>
    <contour>
      <point x="183" y="55"/>
      <point x="147" y="89"/>
      <point x="147" y="140" type="curve" smooth="yes"/>
      <point x="147" y="177"/>
      <point x="162" y="208"/>
      <point x="187" y="230" type="curve"/>
      <point x="219" y="187"/>
      <point x="261" y="139"/>
      <point x="314" y="84" type="curve"/>
      <point x="290" y="66"/>
      <point x="264" y="55"/>
      <point x="235" y="55" type="curve" smooth="yes"/>
    </contour>
  </outline>
</glyph>
<glyph name="parenleft" format="1">
  <advance width="336"/>
  <unicode hex="0028"/>
  <outline>
    <contour>
      <point x="326" y="-104"/>
      <point x="328" y="-90"/>
      <point x="328" y="-77" type="curve" smooth="yes"/>
      <point x="328" y="-58"/>
      <point x="326" y="-40"/>
      <point x="323" y="-20" type="curve"/>
      <point x="283" y="-26"/>
      <point x="250" y="-29"/>
      <point x="222" y="-29" type="curve"/>
      <point x="187" y="-19"/>
      <point x="169" y="123"/>
      <point x="169" y="264" type="curve" smooth="yes"/>
      <point x="169" y="405"/>
      <point x="187" y="545"/>
      <point x="222" y="555" type="curve"/>
      <point x="250" y="555"/>
      <point x="283" y="552"/>
      <point x="323" y="546" type="curve"/>
      <point x="326" y="566"/>
      <point x="328" y="585"/>
      <point x="328" y="605" type="curve" smooth="yes"/>
      <point x="328" y="618"/>
      <point x="326" y="632"/>
      <point x="323" y="647" type="curve"/>
      <point x="137" y="647"/>
      <point x="42" y="506"/>
      <point x="42" y="264" type="curve" smooth="yes"/>
      <point x="42" y="23"/>
      <point x="137" y="-119"/>
      <point x="323" y="-119" type="curve"/>
    </contour>
  </outline>
</glyph>
<glyph name="slash" format="1">
  <advance width="330"/>
  <unicode hex="002F"/>
  <outline>
    <contour>
      <point x="103" y="-87"/>
      <point x="120" y="-83"/>
      <point x="136" y="-78" type="curve"/>
      <point x="141" y="16"/>
      <point x="248" y="451"/>
      <point x="290" y="605" type="curve"/>
      <point x="273" y="610"/>
      <point x="258" y="614"/>
      <point x="245" y="614" type="curve" smooth="yes"/>
      <point x="228" y="614"/>
      <point x="210" y="610"/>
      <point x="194" y="605" type="curve"/>
      <point x="189" y="512"/>
      <point x="83" y="76"/>
      <point x="40" y="-78" type="curve"/>
      <point x="57" y="-83"/>
      <point x="72" y="-87"/>
      <point x="86" y="-87" type="curve" smooth="yes"/>
    </contour>
  </outline>
</glyph>
<glyph name="zero" format="1">
  <advance width="581"/>
  <unicode hex="0030"/>
  <outline>
    <contour>
      <point x="436" y="-11"/>
      <point x="551" y="108"/>
      <point x="551" y="278" type="curve" smooth="yes"/>
      <point x="551" y="431"/>
      <point x="457" y="533"/>
      <point x="318" y="533" type="curve" smooth="yes"/>
      <point x="149" y="533"/>
      <point x="30" y="416"/>
      <point x="30" y="250" type="curve" smooth="yes"/>
      <point x="30" y="94"/>
      <point x="127" y="-11"/>
      <point x="272" y="-11" type="curve" smooth="yes"/>
    </contour>
    <contour>
      <point x="205" y="83"/>
      <point x="149" y="160"/>
      <point x="149" y="277" type="curve" smooth="yes"/>
      <point x="149" y="387"/>
      <point x="214" y="468"/>
      <point x="303" y="468" type="curve"/>
      <point x="384" y="451"/>
      <point x="432" y="377"/>
      <point x="432" y="271" type="curve" smooth="yes"/>
      <point x="432" y="155"/>
      <point x="376" y="83"/>
      <point x="287" y="83" type="curve" smooth="yes"/>
    </contour>
  </outline>
</glyph>
<glyph name="one" format="1">
  <advance width="345"/>
  <unicode hex="0031"/>
  <outline>
    <contour>
      <point x="250" y="-6"/>
      <point x="273" y="-4"/>
      <point x="294" y="0" type="curve"/>
      <point x="283" y="30"/>
      <point x="278" y="105"/>
      <point x="278" y="227" type="curve" smooth="yes"/>
      <point x="278" y="328"/>
      <point x="283" y="459"/>
      <point x="289" y="527" type="curve"/>
      <point x="263" y="531"/>
      <point x="241" y="533"/>
      <point x="221" y="533" type="curve"/>
      <point x="205" y="516"/>
      <point x="158" y="481"/>
      <point x="115" y="456" type="curve" smooth="yes"/>
      <point x="81" y="436"/>
      <point x="46" y="417"/>
      <point x="7" y="398" type="curve"/>
      <point x="18" y="365"/>
      <point x="30" y="338"/>
      <point x="51" y="311" type="curve"/>
      <point x="165" y="383" type="line"/>
      <point x="166" y="357"/>
      <point x="166" y="328"/>
      <point x="166" y="295" type="curve" smooth="yes"/>
      <point x="166" y="197"/>
      <point x="161" y="70"/>
      <point x="155" y="0" type="curve"/>
      <point x="183" y="-4"/>
      <point x="207" y="-6"/>
      <point x="229" y="-6" type="curve" smooth="yes"/>
    </contour>
  </outline>
</glyph>
<glyph name="two" format="1">
  <advance width="512"/>
  <unicode hex="0032"/>
  <outline>
    <contour>
      <point x="463" y="16"/>
      <point x="472" y="76"/>
      <point x="472" y="123" type="curve"/>
      <point x="431" y="107"/>
      <point x="360" y="97"/>
      <point x="290" y="97" type="curve" smooth="yes"/>
      <point x="259" y="97"/>
      <point x="224" y="99"/>
      <point x="199" y="103" type="curve"/>
      <point x="364" y="221"/>
      <point x="445" y="320"/>
      <point x="445" y="405" type="curve" smooth="yes"/>
      <point x="445" y="485"/>
      <point x="372" y="534"/>
      <point x="250" y="534" type="curve" smooth="yes"/>
      <point x="173" y="534"/>
      <point x="94" y="520"/>
      <point x="50" y="499" type="curve"/>
      <point x="50" y="462"/>
      <point x="68" y="406"/>
      <point x="89" y="378" type="curve"/>
      <point x="153" y="427"/>
      <point x="220" y="460"/>
      <point x="261" y="465" type="curve"/>
      <point x="301" y="459"/>
      <point x="321" y="434"/>
      <point x="321" y="396" type="curve" smooth="yes"/>
      <point x="321" y="312"/>
      <point x="239" y="199"/>
      <point x="40" y="43" type="curve"/>
      <point x="40" y="0" type="line"/>
      <point x="141" y="6"/>
      <point x="406" y="3"/>
      <point x="452" y="-5" type="curve"/>
    </contour>
  </outline>
</glyph>
<glyph name="five" format="1">
  <advance width="478"/>
  <unicode hex="0035"/>
  <outline>
    <contour>
      <point x="364" y="-11"/>
      <point x="443" y="50"/>
      <point x="443" y="162" type="curve" smooth="yes"/>
      <point x="443" y="257"/>
      <point x="368" y="328"/>
      <point x="266" y="328" type="curve" smooth="yes"/>
      <point x="215" y="328"/>
      <point x="167" y="314"/>
      <point x="126" y="288" type="curve"/>
      <point x="135" y="414" type="line"/>
      <point x="196" y="416"/>
      <point x="239" y="417"/>
      <point x="291" y="417" type="curve" smooth="yes"/>
      <point x="346" y="417"/>
      <point x="375" y="412"/>
      <point x="398" y="399" type="curve"/>
      <point x="413" y="434"/>
      <point x="423" y="486"/>
      <point x="423" y="527" type="curve"/>
      <point x="391" y="520"/>
      <point x="321" y="516"/>
      <point x="240" y="516" type="curve" smooth="yes"/>
      <point x="160" y="516"/>
      <point x="117" y="519"/>
      <point x="90" y="527" type="curve"/>
      <point x="71" y="240" type="line"/>
      <point x="71" y="234"/>
      <point x="96" y="223"/>
      <point x="122" y="217" type="curve"/>
      <point x="169" y="249"/>
      <point x="216" y="268"/>
      <point x="247" y="268" type="curve"/>
      <point x="296" y="244"/>
      <point x="321" y="208"/>
      <point x="321" y="162" type="curve" smooth="yes"/>
      <point x="321" y="95"/>
      <point x="278" y="57"/>
      <point x="204" y="57" type="curve" smooth="yes"/>
      <point x="141" y="57"/>
      <point x="84" y="80"/>
      <point x="52" y="118" type="curve"/>
      <point x="40" y="90"/>
      <point x="35" y="67"/>
      <point x="35" y="35" type="curve"/>
      <point x="86" y="5"/>
      <point x="149" y="-11"/>
      <point x="216" y="-11" type="curve" smooth="yes"/>
    </contour>
  </outline>
</glyph>
<glyph name="seven" format="1">
  <advance width="464"/>
  <unicode hex="0037"/>
  <outline>
    <contour>
      <point x="256" y="103"/>
      <point x="359" y="300"/>
      <point x="411" y="391" type="curve" smooth="yes"/>
      <point x="431" y="427"/>
      <point x="439" y="454"/>
      <point x="439" y="487" type="curve" smooth="yes"/>
      <point x="439" y="505"/>
      <point x="430" y="530"/>
      <point x="407" y="546" type="curve"/>
      <point x="371" y="524"/>
      <point x="318" y="516"/>
      <point x="227" y="516" type="curve" smooth="yes"/>
      <point x="141" y="516"/>
      <point x="62" y="520"/>
      <point x="25" y="527" type="curve"/>
      <point x="25" y="487"/>
      <point x="35" y="435"/>
      <point x="50" y="399" type="curve"/>
      <point x="72" y="412"/>
      <point x="102" y="417"/>
      <point x="152" y="417" type="curve" smooth="yes"/>
      <point x="215" y="417"/>
      <point x="282" y="416"/>
      <point x="338" y="415" type="curve"/>
      <point x="224" y="210"/>
      <point x="117" y="82"/>
      <point x="65" y="25" type="curve"/>
      <point x="106" y="1"/>
      <point x="148" y="-6"/>
      <point x="202" y="-6" type="curve"/>
    </contour>
  </outline>
</glyph>
<glyph name="eight" format="1">
  <advance width="523"/>
  <unicode hex="0038"/>
  <outline>
    <contour>
      <point x="385" y="-11"/>
      <point x="488" y="52"/>
      <point x="488" y="149" type="curve" smooth="yes"/>
      <point x="488" y="220"/>
      <point x="440" y="257"/>
      <point x="381" y="282" type="curve"/>
      <point x="438" y="311"/>
      <point x="471" y="354"/>
      <point x="471" y="402" type="curve" smooth="yes"/>
      <point x="471" y="481"/>
      <point x="395" y="533"/>
      <point x="283" y="533" type="curve" smooth="yes"/>
      <point x="147" y="533"/>
      <point x="52" y="471"/>
      <point x="52" y="383" type="curve" smooth="yes"/>
      <point x="52" y="317"/>
      <point x="89" y="279"/>
      <point x="138" y="252" type="curve"/>
      <point x="73" y="221"/>
      <point x="35" y="175"/>
      <point x="35" y="123" type="curve" smooth="yes"/>
      <point x="35" y="43"/>
      <point x="120" y="-11"/>
      <point x="246" y="-11" type="curve" smooth="yes"/>
    </contour>
    <contour>
      <point x="198" y="55"/>
      <point x="157" y="87"/>
      <point x="157" y="135" type="curve" smooth="yes"/>
      <point x="157" y="170"/>
      <point x="175" y="200"/>
      <point x="207" y="221" type="curve"/>
      <point x="286" y="193"/>
      <point x="366" y="178"/>
      <point x="366" y="127" type="curve" smooth="yes"/>
      <point x="366" y="83"/>
      <point x="325" y="55"/>
      <point x="259" y="55" type="curve" smooth="yes"/>
    </contour>
    <contour>
      <point x="236" y="332"/>
      <point x="168" y="350"/>
      <point x="168" y="402" type="curve" smooth="yes"/>
      <point x="168" y="447"/>
      <point x="212" y="474"/>
      <point x="272" y="474" type="curve"/>
      <point x="324" y="463"/>
      <point x="355" y="435"/>
      <point x="355" y="392" type="curve" smooth="yes"/>
      <point x="355" y="358"/>
      <point x="338" y="329"/>
      <point x="308" y="308" type="curve"/>
    </contour>
  </outline>
</glyph>
<glyph name="greater" format="1">
  <advance width="533"/>
  <unicode hex="003E"/>
  <outline>
    <contour>
      <point x="206" y="123"/>
      <point x="357" y="184"/>
      <point x="469" y="223" type="curve"/>
      <point x="471" y="237"/>
      <point x="472" y="252"/>
      <point x="472" y="266" type="curve" smooth="yes"/>
      <point x="472" y="280"/>
      <point x="471" y="294"/>
      <point x="469" y="309" type="curve"/>
      <point x="357" y="348"/>
      <point x="206" y="409"/>
      <point x="99" y="458" type="curve"/>
      <point x="81" y="432"/>
      <point x="72" y="408"/>
      <point x="65" y="376" type="curve"/>
      <point x="356" y="266" type="line"/>
      <point x="65" y="156" type="line"/>
      <point x="71" y="127"/>
      <point x="82" y="98"/>
      <point x="99" y="73" type="curve"/>
    </contour>
  </outline>
</glyph>
<glyph name="question" format="1">
  <advance width="384"/>
  <unicode hex="003F"/>
  <outline>
    <contour>
      <point x="256" y="226"/>
      <point x="348" y="295"/>
      <point x="348" y="392" type="curve" smooth="yes"/>
      <point x="348" y="493"/>
      <point x="286" y="547"/>
      <point x="170" y="547" type="curve" smooth="yes"/>
      <point x="113" y="547"/>
      <point x="62" y="531"/>
      <point x="17" y="501" type="curve"/>
      <point x="17" y="469"/>
      <point x="21" y="446"/>
      <point x="31" y="418" type="curve"/>
      <point x="55" y="456"/>
      <point x="96" y="479"/>
      <point x="141" y="479" type="curve" smooth="yes"/>
      <point x="195" y="479"/>
      <point x="226" y="447"/>
      <point x="226" y="390" type="curve" smooth="yes"/>
      <point x="226" y="336"/>
      <point x="193" y="293"/>
      <point x="131" y="267" type="curve"/>
      <point x="151" y="213" type="line"/>
    </contour>
    <contour>
      <point x="193" y="11"/>
      <point x="219" y="37"/>
      <point x="244" y="68" type="curve"/>
      <point x="213" y="93"/>
      <point x="187" y="119"/>
      <point x="162" y="150" type="curve"/>
      <point x="131" y="125"/>
      <point x="105" y="99"/>
      <point x="79" y="68" type="curve"/>
      <point x="110" y="42"/>
      <point x="136" y="16"/>
      <point x="162" y="-15" type="curve"/>
    </contour>
  </outline>
</glyph>
<glyph name="at" format="1">
  <advance width="819"/>
  <unicode hex="0040"/>
  <outline>
    <contour>
      <point x="423" y="-124"/>
      <point x="467" y="-113"/>
      <point x="503" y="-94" type="curve"/>
      <point x="503" y="-71"/>
      <point x="499" y="-55"/>
      <point x="487" y="-34" type="curve"/>
      <point x="463" y="-52"/>
      <point x="419" y="-63"/>
      <point x="377" y="-63" type="curve" smooth="yes"/>
      <point x="220" y="-63"/>
      <point x="133" y="56"/>
      <point x="133" y="214" type="curve" smooth="yes"/>
      <point x="133" y="378"/>
      <point x="258" y="495"/>
      <point x="433" y="495" type="curve"/>
      <point x="596" y="470"/>
      <point x="692" y="362"/>
      <point x="692" y="206" type="curve" smooth="yes"/>
      <point x="692" y="102"/>
      <point x="648" y="56"/>
      <point x="613" y="56" type="curve" smooth="yes"/>
      <point x="583" y="56"/>
      <point x="558" y="73"/>
      <point x="558" y="135" type="curve" smooth="yes"/>
      <point x="558" y="192"/>
      <point x="566" y="241"/>
      <point x="566" y="293" type="curve" smooth="yes"/>
      <point x="566" y="364"/>
      <point x="518" y="403"/>
      <point x="432" y="403" type="curve" smooth="yes"/>
      <point x="369" y="403"/>
      <point x="304" y="370"/>
      <point x="268" y="321" type="curve"/>
      <point x="279" y="271" type="line"/>
      <point x="308" y="295"/>
      <point x="350" y="309"/>
      <point x="389" y="309" type="curve" smooth="yes"/>
      <point x="437" y="309"/>
      <point x="458" y="290"/>
      <point x="460" y="242" type="curve"/>
      <point x="321" y="233"/>
      <point x="251" y="195"/>
      <point x="251" y="126" type="curve" smooth="yes"/>
      <point x="251" y="81"/>
      <point x="280" y="49"/>
      <point x="337" y="49" type="curve" smooth="yes"/>
      <point x="374" y="49"/>
      <point x="419" y="64"/>
      <point x="460" y="88" type="curve"/>
      <point x="477" y="17"/>
      <point x="532" y="-11"/>
      <point x="589" y="-11" type="curve" smooth="yes"/>
      <point x="672" y="-11"/>
      <point x="769" y="65"/>
      <point x="769" y="251" type="curve" smooth="yes"/>
      <point x="769" y="458"/>
      <point x="635" y="595"/>
      <point x="434" y="595" type="curve" smooth="yes"/>
      <point x="209" y="595"/>
      <point x="50" y="438"/>
      <point x="50" y="212" type="curve" smooth="yes"/>
      <point x="50" y="11"/>
      <point x="180" y="-124"/>
      <point x="374" y="-124" type="curve" smooth="yes"/>
    </contour>
    <contour>
      <point x="372" y="113"/>
      <point x="362" y="130"/>
      <point x="362" y="146" type="curve" smooth="yes"/>
      <point x="362" y="179"/>
      <point x="397" y="200"/>
      <point x="460" y="204" type="curve"/>
      <point x="456" y="179"/>
      <point x="455" y="153"/>
      <point x="455" y="130" type="curve"/>
      <point x="433" y="117"/>
      <point x="407" y="107"/>
      <point x="385" y="105" type="curve"/>
    </contour>
  </outline>
</glyph>
<glyph name="C" format="1">
  <advance width="495"/>
  <unicode hex="0043"/>
  <outline>
    <contour>
      <point x="349" y="-11"/>
      <point x="432" y="25"/>
      <point x="478" y="78" type="curve"/>
      <point x="465" y="128" type="line"/>
      <point x="426" y="103"/>
      <point x="365" y="87"/>
      <point x="306" y="87" type="curve" smooth="yes"/>
      <point x="214" y="87"/>
      <point x="157" y="144"/>
      <point x="157" y="269" type="curve" smooth="yes"/>
      <point x="157" y="359"/>
      <point x="207" y="447"/>
      <point x="268" y="464" type="curve"/>
      <point x="303" y="464"/>
      <point x="371" y="431"/>
      <point x="424" y="388" type="curve"/>
      <point x="444" y="410"/>
      <point x="464" y="470"/>
      <point x="464" y="509" type="curve"/>
      <point x="425" y="525"/>
      <point x="374" y="533"/>
      <point x="315" y="533" type="curve" smooth="yes"/>
      <point x="150" y="533"/>
      <point x="35" y="413"/>
      <point x="35" y="241" type="curve" smooth="yes"/>
      <point x="35" y="79"/>
      <point x="119" y="-11"/>
      <point x="270" y="-11" type="curve" smooth="yes"/>
    </contour>
    <contour>
      <point x="272" y="527" type="move" name="top"/>
    </contour>
    <contour>
      <point x="252" y="0" type="move" name="bottom"/>
    </contour>
  </outline>
</glyph>
<glyph name="D" format="1">
  <advance width="583"/>
  <unicode hex="0044"/>
  <outline>
    <contour>
      <point x="423" y="-6"/>
      <point x="547" y="105"/>
      <point x="547" y="266" type="curve" smooth="yes"/>
      <point x="547" y="437"/>
      <point x="446" y="532"/>
      <point x="263" y="532" type="curve" smooth="yes"/>
      <point x="183" y="532"/>
      <point x="98" y="521"/>
      <point x="52" y="505" type="curve"/>
      <point x="63" y="478"/>
      <point x="68" y="408"/>
      <point x="68" y="300" type="curve" smooth="yes"/>
      <point x="68" y="199"/>
      <point x="63" y="73"/>
      <point x="57" y="10" type="curve"/>
      <point x="108" y="0"/>
      <point x="181" y="-6"/>
      <point x="243" y="-6" type="curve" smooth="yes"/>
    </contour>
    <contour>
      <point x="265" y="58"/>
      <point x="226" y="66"/>
      <point x="184" y="78" type="curve"/>
      <point x="182" y="116"/>
      <point x="180" y="166"/>
      <point x="180" y="227" type="curve" smooth="yes"/>
      <point x="180" y="299"/>
      <point x="183" y="383"/>
      <point x="187" y="446" type="curve"/>
      <point x="204" y="452"/>
      <point x="223" y="454"/>
      <point x="242" y="454" type="curve" smooth="yes"/>
      <point x="358" y="454"/>
      <point x="425" y="393"/>
      <point x="425" y="248" type="curve" smooth="yes"/>
      <point x="425" y="160"/>
      <point x="365" y="71"/>
      <point x="290" y="58" type="curve"/>
    </contour>
    <contour>
      <point x="175" y="264" type="move" name="center"/>
    </contour>
    <contour>
      <point x="292" y="0" type="move" name="bottom"/>
    </contour>
    <contour>
      <point x="292" y="527" type="move" name="top"/>
    </contour>
  </outline>
</glyph>
<glyph name="G" format="1">
  <advance width="532"/>
  <unicode hex="0047"/>
  <outline>
    <contour>
      <point x="349" y="-11"/>
      <point x="432" y="17"/>
      <point x="478" y="58" type="curve"/>
      <point x="479" y="130"/>
      <point x="483" y="207"/>
      <point x="488" y="255" type="curve"/>
      <point x="460" y="259"/>
      <point x="437" y="261"/>
      <point x="417" y="261" type="curve" smooth="yes"/>
      <point x="396" y="261"/>
      <point x="373" y="259"/>
      <point x="354" y="255" type="curve"/>
      <point x="364" y="231"/>
      <point x="369" y="174"/>
      <point x="370" y="84" type="curve"/>
      <point x="351" y="79"/>
      <point x="331" y="77"/>
      <point x="311" y="77" type="curve" smooth="yes"/>
      <point x="205" y="77"/>
      <point x="157" y="137"/>
      <point x="157" y="269" type="curve" smooth="yes"/>
      <point x="157" y="359"/>
      <point x="207" y="447"/>
      <point x="268" y="464" type="curve"/>
      <point x="306" y="464"/>
      <point x="379" y="431"/>
      <point x="434" y="388" type="curve"/>
      <point x="454" y="410"/>
      <point x="474" y="470"/>
      <point x="474" y="509" type="curve"/>
      <point x="434" y="525"/>
      <point x="379" y="533"/>
      <point x="315" y="533" type="curve" smooth="yes"/>
      <point x="150" y="533"/>
      <point x="35" y="413"/>
      <point x="35" y="241" type="curve" smooth="yes"/>
      <point x="35" y="79"/>
      <point x="119" y="-11"/>
      <point x="270" y="-11" type="curve" smooth="yes"/>
    </contour>
    <contour>
      <point x="287" y="527" type="move" name="top"/>
    </contour>
    <contour>
      <point x="267" y="0" type="move" name="bottom"/>
    </contour>
  </outline>
</glyph>
<glyph name="K" format="1">
  <advance width="523"/>
  <unicode hex="004B"/>
  <outline>
    <contour>
      <point x="152" y="-6"/>
      <point x="175" y="-4"/>
      <point x="196" y="0" type="curve"/>
      <point x="186" y="27"/>
      <point x="181" y="88"/>
      <point x="180" y="188" type="curve"/>
      <point x="192" y="201"/>
      <point x="204" y="215"/>
      <point x="216" y="229" type="curve"/>
      <point x="292" y="121"/>
      <point x="350" y="35"/>
      <point x="374" y="-6" type="curve"/>
      <point x="432" y="-6"/>
      <point x="477" y="-1"/>
      <point x="522" y="15" type="curve"/>
      <point x="463" y="59"/>
      <point x="375" y="184"/>
      <point x="293" y="316" type="curve"/>
      <point x="362" y="393"/>
      <point x="436" y="472"/>
      <point x="499" y="533" type="curve"/>
      <point x="453" y="533"/>
      <point x="414" y="531"/>
      <point x="361" y="522" type="curve"/>
      <point x="361" y="493"/>
      <point x="339" y="446"/>
      <point x="180" y="278" type="curve"/>
      <point x="182" y="368"/>
      <point x="186" y="470"/>
      <point x="191" y="527" type="curve"/>
      <point x="165" y="531"/>
      <point x="143" y="533"/>
      <point x="123" y="533" type="curve" smooth="yes"/>
      <point x="99" y="533"/>
      <point x="74" y="531"/>
      <point x="52" y="527" type="curve"/>
      <point x="63" y="497"/>
      <point x="68" y="417"/>
      <point x="68" y="295" type="curve" smooth="yes"/>
      <point x="68" y="197"/>
      <point x="63" y="70"/>
      <point x="57" y="0" type="curve"/>
      <point x="85" y="-4"/>
      <point x="109" y="-6"/>
      <point x="131" y="-6" type="curve" smooth="yes"/>
    </contour>
    <contour>
      <point x="262" y="527" type="move" name="top"/>
    </contour>
    <contour>
      <point x="262" y="0" type="move" name="bottom"/>
    </contour>
  </outline>
</glyph>
<glyph name="L" format="1">
  <advance width="420"/>
  <unicode hex="004C"/>
  <outline>
    <contour>
      <point x="98" y="2"/>
      <point x="156" y="4"/>
      <point x="230" y="4" type="curve" smooth="yes"/>
      <point x="291" y="4"/>
      <point x="351" y="2"/>
      <point x="391" y="-3" type="curve"/>
      <point x="403" y="15"/>
      <point x="412" y="72"/>
      <point x="412" y="113" type="curve"/>
      <point x="379" y="97"/>
      <point x="324" y="86"/>
      <point x="275" y="86" type="curve" smooth="yes"/>
      <point x="245" y="86"/>
      <point x="211" y="89"/>
      <point x="184" y="94" type="curve"/>
      <point x="181" y="126"/>
      <point x="180" y="168"/>
      <point x="180" y="227" type="curve" smooth="yes"/>
      <point x="180" y="328"/>
      <point x="185" y="459"/>
      <point x="191" y="527" type="curve"/>
      <point x="164" y="531"/>
      <point x="141" y="533"/>
      <point x="120" y="533" type="curve" smooth="yes"/>
      <point x="98" y="533"/>
      <point x="75" y="531"/>
      <point x="52" y="527" type="curve"/>
      <point x="63" y="498"/>
      <point x="68" y="418"/>
      <point x="68" y="295" type="curve" smooth="yes"/>
      <point x="68" y="184"/>
      <point x="65" y="106"/>
      <point x="57" y="-3" type="curve"/>
    </contour>
    <contour>
      <point x="133" y="264" type="move" name="center"/>
    </contour>
    <contour>
      <point x="126" y="527" type="move" name="top"/>
    </contour>
    <contour>
      <point x="305" y="407" type="move" name="topright"/>
    </contour>
    <contour>
      <point x="213" y="0" type="move" name="bottom"/>
    </contour>
  </outline>
</glyph>
<glyph name="N" format="1">
  <advance width="543"/>
  <unicode hex="004E"/>
  <outline>
    <contour>
      <point x="114" y="-6"/>
      <point x="128" y="-4"/>
      <point x="142" y="0" type="curve"/>
      <point x="135" y="30"/>
      <point x="131" y="107"/>
      <point x="131" y="227" type="curve" smooth="yes"/>
      <point x="131" y="280"/>
      <point x="132" y="338"/>
      <point x="134" y="391" type="curve"/>
      <point x="211" y="262"/>
      <point x="313" y="83"/>
      <point x="356" y="0" type="curve"/>
      <point x="383" y="-4"/>
      <point x="410" y="-6"/>
      <point x="431" y="-6" type="curve" smooth="yes"/>
      <point x="455" y="-6"/>
      <point x="478" y="-4"/>
      <point x="495" y="0" type="curve"/>
      <point x="488" y="31"/>
      <point x="484" y="110"/>
      <point x="484" y="232" type="curve" smooth="yes"/>
      <point x="484" y="335"/>
      <point x="488" y="462"/>
      <point x="492" y="527" type="curve"/>
      <point x="473" y="531"/>
      <point x="457" y="533"/>
      <point x="443" y="533" type="curve" smooth="yes"/>
      <point x="429" y="533"/>
      <point x="414" y="531"/>
      <point x="400" y="527" type="curve"/>
      <point x="408" y="497"/>
      <point x="411" y="420"/>
      <point x="411" y="300" type="curve" smooth="yes"/>
      <point x="411" y="248"/>
      <point x="410" y="189"/>
      <point x="409" y="136" type="curve"/>
      <point x="332" y="265"/>
      <point x="230" y="444"/>
      <point x="187" y="527" type="curve"/>
      <point x="157" y="531"/>
      <point x="133" y="533"/>
      <point x="112" y="533" type="curve" smooth="yes"/>
      <point x="90" y="533"/>
      <point x="66" y="531"/>
      <point x="47" y="527" type="curve"/>
      <point x="54" y="497"/>
      <point x="58" y="418"/>
      <point x="58" y="295" type="curve" smooth="yes"/>
      <point x="58" y="193"/>
      <point x="55" y="65"/>
      <point x="50" y="0" type="curve"/>
      <point x="69" y="-4"/>
      <point x="86" y="-6"/>
      <point x="100" y="-6" type="curve" smooth="yes"/>
    </contour>
    <contour>
      <point x="272" y="527" type="move" name="top"/>
    </contour>
    <contour>
      <point x="272" y="0" type="move" name="bottom"/>
    </contour>
  </outline>
</glyph>
<glyph name="O" format="1">
  <advance width="611"/>
  <unicode hex="004F"/>
  <outline>
    <contour>
      <point x="454" y="-13"/>
      <point x="576" y="105"/>
      <point x="576" y="272" type="curve" smooth="yes"/>
      <point x="576" y="430"/>
      <point x="475" y="535"/>
      <point x="324" y="535" type="curve" smooth="yes"/>
      <point x="154" y="535"/>
      <point x="35" y="415"/>
      <point x="35" y="244" type="curve" smooth="yes"/>
      <point x="35" y="91"/>
      <point x="133" y="-13"/>
      <point x="279" y="-13" type="curve" smooth="yes"/>
    </contour>
    <contour>
      <point x="215" y="52"/>
      <point x="157" y="127"/>
      <point x="157" y="240" type="curve" smooth="yes"/>
      <point x="157" y="351"/>
      <point x="225" y="431"/>
      <point x="319" y="431" type="curve"/>
      <point x="402" y="413"/>
      <point x="454" y="335"/>
      <point x="454" y="232" type="curve" smooth="yes"/>
      <point x="454" y="122"/>
      <point x="395" y="52"/>
      <point x="302" y="52" type="curve" smooth="yes"/>
    </contour>
    <contour>
      <point x="306" y="264" type="move" name="center"/>
    </contour>
    <contour>
      <point x="550" y="10" type="move" name="ogonek"/>
    </contour>
    <contour>
      <point x="306" y="527" type="move" name="top"/>
    </contour>
    <contour>
      <point x="591" y="527" type="move" name="topright"/>
    </contour>
    <contour>
      <point x="20" y="527" type="move" name="topleft"/>
    </contour>
    <contour>
      <point x="306" y="0" type="move" name="bottom"/>
    </contour>
  </outline>
</glyph>
<glyph name="Q" format="1">
  <advance width="611"/>
  <unicode hex="0051"/>
  <outline>
    <contour>
      <point x="401" y="-134"/>
      <point x="445" y="-129"/>
      <point x="488" y="-113" type="curve"/>
      <point x="453" y="-90"/>
      <point x="407" y="-38"/>
      <point x="358" y="25" type="curve"/>
      <point x="249" y="25" type="line"/>
      <point x="295" y="-47"/>
      <point x="330" y="-105"/>
      <point x="345" y="-134" type="curve"/>
    </contour>
    <component base="O"/>
  </outline>
</glyph>
<glyph name="Y" format="1">
  <advance width="491"/>
  <unicode hex="0059"/>
  <outline>
    <contour>
      <point x="275" y="-6"/>
      <point x="298" y="-4"/>
      <point x="319" y="0" type="curve"/>
      <point x="308" y="25"/>
      <point x="303" y="88"/>
      <point x="303" y="188" type="curve"/>
      <point x="348" y="288"/>
      <point x="419" y="436"/>
      <point x="486" y="533" type="curve"/>
      <point x="446" y="533"/>
      <point x="413" y="532"/>
      <point x="368" y="527" type="curve"/>
      <point x="366" y="494"/>
      <point x="339" y="414"/>
      <point x="270" y="281" type="curve"/>
      <point x="207" y="399"/>
      <point x="162" y="510"/>
      <point x="155" y="533" type="curve"/>
      <point x="98" y="533"/>
      <point x="50" y="528"/>
      <point x="5" y="512" type="curve"/>
      <point x="30" y="488"/>
      <point x="124" y="335"/>
      <point x="190" y="187" type="curve"/>
      <point x="189" y="116"/>
      <point x="185" y="42"/>
      <point x="180" y="0" type="curve"/>
      <point x="208" y="-4"/>
      <point x="232" y="-6"/>
      <point x="254" y="-6" type="curve" smooth="yes"/>
    </contour>
    <contour>
      <point x="266" y="527" type="move" name="top"/>
    </contour>
    <contour>
      <point x="246" y="0" type="move" name="bottom"/>
    </contour>
    <contour>
      <point x="20" y="527" type="move" name="topleft"/>
    </contour>
  </outline>
</glyph>
<glyph name="Z" format="1">
  <advance width="460"/>
  <unicode hex="005A"/>
  <outline>
    <contour>
      <point x="430" y="20"/>
      <point x="438" y="84"/>
      <point x="438" y="123" type="curve"/>
      <point x="395" y="106"/>
      <point x="323" y="97"/>
      <point x="260" y="97" type="curve" smooth="yes"/>
      <point x="226" y="97"/>
      <point x="187" y="100"/>
      <point x="160" y="103" type="curve"/>
      <point x="240" y="205"/>
      <point x="386" y="385"/>
      <point x="422" y="435" type="curve" smooth="yes"/>
      <point x="437" y="455"/>
      <point x="442" y="472"/>
      <point x="442" y="492" type="curve" smooth="yes"/>
      <point x="442" y="509"/>
      <point x="433" y="532"/>
      <point x="410" y="546" type="curve"/>
      <point x="374" y="524"/>
      <point x="321" y="516"/>
      <point x="230" y="516" type="curve" smooth="yes"/>
      <point x="144" y="516"/>
      <point x="65" y="520"/>
      <point x="28" y="527" type="curve"/>
      <point x="28" y="487"/>
      <point x="38" y="435"/>
      <point x="53" y="399" type="curve"/>
      <point x="75" y="412"/>
      <point x="105" y="417"/>
      <point x="155" y="417" type="curve" smooth="yes"/>
      <point x="215" y="417"/>
      <point x="280" y="415"/>
      <point x="329" y="414" type="curve"/>
      <point x="196" y="241"/>
      <point x="74" y="97"/>
      <point x="17" y="43" type="curve"/>
      <point x="17" y="0" type="line"/>
      <point x="91" y="5"/>
      <point x="361" y="5"/>
      <point x="418" y="-5" type="curve"/>
    </contour>
    <contour>
      <point x="231" y="527" type="move" name="top"/>
    </contour>
    <contour>
      <point x="231" y="0" type="move" name="bottom"/>
    </contour>
  </outline>
</glyph>
<glyph name="underscore" format="1">
  <advance width="499"/>
  <unicode hex="005F"/>
  <outline>
    <contour>
      <point x="96" y="-111"/>
      <point x="179" y="-102"/>
      <point x="257" y="-102" type="curve" smooth="yes"/>
      <point x="319" y="-102"/>
      <point x="383" y="-103"/>
      <point x="454" y="-107" type="curve"/>
      <point x="454" y="-63"/>
      <point x="450" y="-25"/>
      <point x="436" y="19" type="curve"/>
      <point x="402" y="9"/>
      <point x="319" y="0"/>
      <point x="242" y="0" type="curve" smooth="yes"/>
      <point x="179" y="0"/>
      <point x="116" y="1"/>
      <point x="45" y="5" type="curve"/>
      <point x="45" y="-39"/>
      <point x="49" y="-77"/>
      <point x="63" y="-121" type="curve"/>
    </contour>
  </outline>
</glyph>
<glyph name="a" format="1">
  <advance width="437"/>
  <unicode hex="0061"/>
  <outline>
    <contour>
      <point x="167" y="-11"/>
      <point x="220" y="9"/>
      <point x="267" y="40" type="curve"/>
      <point x="275" y="18"/>
      <point x="287" y="2"/>
      <point x="306" y="-11" type="curve"/>
      <point x="342" y="-7"/>
      <point x="379" y="7"/>
      <point x="407" y="27" type="curve"/>
      <point x="376" y="60"/>
      <point x="368" y="83"/>
      <point x="368" y="132" type="curve" smooth="yes"/>
      <point x="368" y="179"/>
      <point x="377" y="231"/>
      <point x="377" y="284" type="curve" smooth="yes"/>
      <point x="377" y="370"/>
      <point x="325" y="418"/>
      <point x="229" y="418" type="curve" smooth="yes"/>
      <point x="161" y="418"/>
      <point x="89" y="378"/>
      <point x="49" y="319" type="curve"/>
      <point x="57" y="273" type="line"/>
      <point x="91" y="296"/>
      <point x="139" y="310"/>
      <point x="183" y="310" type="curve" smooth="yes"/>
      <point x="241" y="310"/>
      <point x="263" y="286"/>
      <point x="265" y="225" type="curve"/>
      <point x="107" y="213"/>
      <point x="30" y="167"/>
      <point x="30" y="83" type="curve" smooth="yes"/>
      <point x="30" y="28"/>
      <point x="64" y="-11"/>
      <point x="125" y="-11" type="curve" smooth="yes"/>
    </contour>
    <contour>
      <point x="159" y="61"/>
      <point x="148" y="83"/>
      <point x="148" y="103" type="curve" smooth="yes"/>
      <point x="148" y="148"/>
      <point x="190" y="176"/>
      <point x="264" y="182" type="curve"/>
      <point x="262" y="147"/>
      <point x="258" y="124"/>
      <point x="258" y="92" type="curve" smooth="yes"/>
      <point x="258" y="84" type="line"/>
      <point x="233" y="66"/>
      <point x="202" y="53"/>
      <point x="175" y="50" type="curve"/>
    </contour>
    <contour>
      <point x="355" y="1" type="move" name="ogonek"/>
    </contour>
    <contour>
      <point x="219" y="0" type="move" name="bottom"/>
    </contour>
    <contour>
      <point x="219" y="407" type="move" name="top"/>
    </contour>
  </outline>
</glyph>
<glyph name="c" format="1">
  <advance width="405"/>
  <unicode hex="0063"/>
  <outline>
    <contour>
      <point x="278" y="-11"/>
      <point x="345" y="23"/>
      <point x="382" y="73" type="curve"/>
      <point x="374" y="124" type="line"/>
      <point x="344" y="100"/>
      <point x="301" y="87"/>
      <point x="255" y="87" type="curve" smooth="yes"/>
      <point x="179" y="87"/>
      <point x="148" y="131"/>
      <point x="148" y="217" type="curve" smooth="yes"/>
      <point x="148" y="276"/>
      <point x="172" y="327"/>
      <point x="207" y="349" type="curve"/>
      <point x="238" y="349"/>
      <point x="288" y="323"/>
      <point x="338" y="278" type="curve"/>
      <point x="354" y="312"/>
      <point x="369" y="366"/>
      <point x="369" y="394" type="curve"/>
      <point x="332" y="413"/>
      <point x="291" y="418"/>
      <point x="254" y="418" type="curve" smooth="yes"/>
      <point x="122" y="418"/>
      <point x="30" y="325"/>
      <point x="30" y="191" type="curve" smooth="yes"/>
      <point x="30" y="61"/>
      <point x="96" y="-11"/>
      <point x="214" y="-11" type="curve" smooth="yes"/>
    </contour>
    <contour>
      <point x="211" y="407" type="move" name="top"/>
    </contour>
    <contour>
      <point x="201" y="0" type="move" name="bottom"/>
    </contour>
  </outline>
</glyph>
<glyph name="e" format="1">
  <advance width="465"/>
  <unicode hex="0065"/>
  <outline>
    <contour>
      <point x="291" y="-11"/>
      <point x="370" y="25"/>
      <point x="412" y="78" type="curve"/>
      <point x="400" y="124" type="line"/>
      <point x="363" y="99"/>
      <point x="312" y="86"/>
      <point x="256" y="86" type="curve" smooth="yes"/>
      <point x="195" y="86"/>
      <point x="162" y="112"/>
      <point x="152" y="171" type="curve"/>
      <point x="250" y="173"/>
      <point x="357" y="187"/>
      <point x="427" y="204" type="curve"/>
      <point x="427" y="345"/>
      <point x="368" y="418"/>
      <point x="255" y="418" type="curve" smooth="yes"/>
      <point x="123" y="418"/>
      <point x="32" y="325"/>
      <point x="32" y="191" type="curve" smooth="yes"/>
      <point x="32" y="61"/>
      <point x="98" y="-11"/>
      <point x="215" y="-11" type="curve" smooth="yes"/>
    </contour>
    <contour>
      <point x="149" y="280"/>
      <point x="172" y="336"/>
      <point x="208" y="359" type="curve"/>
      <point x="261" y="359"/>
      <point x="299" y="313"/>
      <point x="301" y="253" type="curve"/>
      <point x="265" y="236"/>
      <point x="204" y="222"/>
      <point x="148" y="216" type="curve"/>
    </contour>
    <contour>
      <point x="317" y="11" type="move" name="ogonek"/>
    </contour>
    <contour>
      <point x="226" y="0" type="move" name="bottom"/>
    </contour>
    <contour>
      <point x="236" y="407" type="move" name="top"/>
    </contour>
  </outline>
</glyph>
<glyph name="f" format="1">
  <advance width="317"/>
  <unicode hex="0066"/>
  <outline>
    <contour>
      <point x="171" y="-82"/>
      <point x="202" y="-32"/>
      <point x="202" y="63" type="curve" smooth="yes"/>
      <point x="202" y="109"/>
      <point x="195" y="180"/>
      <point x="195" y="281" type="curve" smooth="yes"/>
      <point x="195" y="333" type="line"/>
      <point x="234" y="332"/>
      <point x="262" y="328"/>
      <point x="284" y="321" type="curve"/>
      <point x="296" y="349"/>
      <point x="301" y="372"/>
      <point x="301" y="404" type="curve"/>
      <point x="278" y="400"/>
      <point x="242" y="397"/>
      <point x="197" y="396" type="curve"/>
      <point x="201" y="474"/>
      <point x="210" y="501"/>
      <point x="230" y="516" type="curve"/>
      <point x="259" y="513"/>
      <point x="295" y="494"/>
      <point x="344" y="458" type="curve"/>
      <point x="359" y="483"/>
      <point x="374" y="540"/>
      <point x="374" y="569" type="curve"/>
      <point x="343" y="580"/>
      <point x="307" y="585"/>
      <point x="267" y="585" type="curve" smooth="yes"/>
      <point x="171" y="585"/>
      <point x="99" y="515"/>
      <point x="82" y="407" type="curve"/>
      <point x="62" y="393"/>
      <point x="41" y="380"/>
      <point x="17" y="368" type="curve"/>
      <point x="17" y="338"/>
      <point x="27" y="331"/>
      <point x="82" y="330" type="curve"/>
      <point x="97" y="-13"/>
      <point x="91" y="-65"/>
      <point x="40" y="-137" type="curve"/>
      <point x="65" y="-159" type="line"/>
    </contour>
    <contour>
      <point x="150" y="407" type="move" name="top"/>
    </contour>
    <contour>
      <point x="150" y="0" type="move" name="bottom"/>
    </contour>
  </outline>
</glyph>
<glyph name="p" format="1">
  <advance width="518"/>
  <unicode hex="0070"/>
  <outline>
    <contour>
      <point x="121" y="-180"/>
      <point x="162" y="-174"/>
      <point x="204" y="-160" type="curve"/>
      <point x="195" y="-122"/>
      <point x="190" y="-69"/>
      <point x="187" y="4" type="curve"/>
      <point x="209" y="-5"/>
      <point x="234" y="-9"/>
      <point x="260" y="-9" type="curve" smooth="yes"/>
      <point x="399" y="-9"/>
      <point x="480" y="73"/>
      <point x="480" y="212" type="curve" smooth="yes"/>
      <point x="480" y="344"/>
      <point x="422" y="413"/>
      <point x="317" y="413" type="curve" smooth="yes"/>
      <point x="269" y="413"/>
      <point x="222" y="394"/>
      <point x="188" y="362" type="curve"/>
      <point x="181" y="395"/>
      <point x="160" y="414"/>
      <point x="122" y="414" type="curve" smooth="yes"/>
      <point x="102" y="414"/>
      <point x="68" y="405"/>
      <point x="40" y="378" type="curve"/>
      <point x="71" y="344"/>
      <point x="79" y="321"/>
      <point x="79" y="213" type="curve" smooth="yes"/>
      <point x="79" y="49"/>
      <point x="74" y="-104"/>
      <point x="67" y="-180" type="curve"/>
    </contour>
    <contour>
      <point x="230" y="48"/>
      <point x="205" y="60"/>
      <point x="185" y="82" type="curve"/>
      <point x="185" y="112" type="line" smooth="yes"/>
      <point x="185" y="186"/>
      <point x="188" y="248"/>
      <point x="190" y="296" type="curve"/>
      <point x="215" y="310"/>
      <point x="248" y="319"/>
      <point x="278" y="319" type="curve"/>
      <point x="328" y="298"/>
      <point x="358" y="246"/>
      <point x="358" y="177" type="curve" smooth="yes"/>
      <point x="358" y="96"/>
      <point x="321" y="48"/>
      <point x="257" y="48" type="curve" smooth="yes"/>
    </contour>
    <contour>
      <point x="263" y="407" type="move" name="top"/>
    </contour>
    <contour>
      <point x="263" y="0" type="move" name="bottom"/>
    </contour>
  </outline>
</glyph>
<glyph name="q" format="1">
  <advance width="508"/>
  <unicode hex="0071"/>
  <outline>
    <contour>
      <point x="365" y="-180"/>
      <point x="406" y="-176"/>
      <point x="448" y="-165" type="curve"/>
      <point x="441" y="-100"/>
      <point x="436" y="51"/>
      <point x="436" y="213" type="curve" smooth="yes"/>
      <point x="436" y="321"/>
      <point x="444" y="344"/>
      <point x="475" y="378" type="curve"/>
      <point x="447" y="405"/>
      <point x="413" y="414"/>
      <point x="393" y="414" type="curve" smooth="yes"/>
      <point x="361" y="414"/>
      <point x="342" y="401"/>
      <point x="332" y="377" type="curve"/>
      <point x="296" y="404"/>
      <point x="255" y="418"/>
      <point x="210" y="418" type="curve" smooth="yes"/>
      <point x="96" y="418"/>
      <point x="37" y="343"/>
      <point x="37" y="197" type="curve" smooth="yes"/>
      <point x="37" y="60"/>
      <point x="95" y="-12"/>
      <point x="205" y="-12" type="curve" smooth="yes"/>
      <point x="249" y="-12"/>
      <point x="294" y="9"/>
      <point x="329" y="42" type="curve"/>
      <point x="327" y="-61"/>
      <point x="321" y="-132"/>
      <point x="311" y="-180" type="curve"/>
    </contour>
    <contour>
      <point x="185" y="60"/>
      <point x="154" y="111"/>
      <point x="154" y="186" type="curve" smooth="yes"/>
      <point x="154" y="273"/>
      <point x="188" y="317"/>
      <point x="253" y="317" type="curve" smooth="yes"/>
      <point x="279" y="317"/>
      <point x="304" y="311"/>
      <point x="325" y="299" type="curve"/>
      <point x="326" y="250"/>
      <point x="330" y="187"/>
      <point x="330" y="112" type="curve" smooth="yes"/>
      <point x="330" y="97" type="line"/>
      <point x="302" y="72"/>
      <point x="267" y="54"/>
      <point x="237" y="50" type="curve"/>
    </contour>
    <contour>
      <point x="257" y="407" type="move" name="top"/>
    </contour>
    <contour>
      <point x="257" y="0" type="move" name="bottom"/>
    </contour>
  </outline>
</glyph>
<glyph name="u" format="1">
  <advance width="492"/>
  <unicode hex="0075"/>
  <outline>
    <contour>
      <point x="233" y="-11"/>
      <point x="282" y="12"/>
      <point x="316" y="49" type="curve"/>
      <point x="323" y="23"/>
      <point x="335" y="3"/>
      <point x="355" y="-11" type="curve"/>
      <point x="393" y="-7"/>
      <point x="432" y="10"/>
      <point x="461" y="32" type="curve"/>
      <point x="430" y="68"/>
      <point x="422" y="92"/>
      <point x="422" y="147" type="curve" smooth="yes"/>
      <point x="422" y="184"/>
      <point x="428" y="328"/>
      <point x="434" y="417" type="curve"/>
      <point x="380" y="417"/>
      <point x="339" y="411"/>
      <point x="297" y="397" type="curve"/>
      <point x="310" y="368"/>
      <point x="316" y="324"/>
      <point x="316" y="257" type="curve" smooth="yes"/>
      <point x="316" y="229"/>
      <point x="313" y="170"/>
      <point x="312" y="108" type="curve"/>
      <point x="290" y="94"/>
      <point x="266" y="87"/>
      <point x="236" y="87" type="curve" smooth="yes"/>
      <point x="195" y="87"/>
      <point x="178" y="106"/>
      <point x="178" y="157" type="curve" smooth="yes"/>
      <point x="178" y="262"/>
      <point x="180" y="361"/>
      <point x="184" y="417" type="curve"/>
      <point x="130" y="417"/>
      <point x="89" y="411"/>
      <point x="47" y="397" type="curve"/>
      <point x="60" y="368"/>
      <point x="66" y="324"/>
      <point x="66" y="257" type="curve" smooth="yes"/>
      <point x="66" y="226"/>
      <point x="62" y="156"/>
      <point x="62" y="127" type="curve" smooth="yes"/>
      <point x="62" y="35"/>
      <point x="103" y="-11"/>
      <point x="184" y="-11" type="curve" smooth="yes"/>
    </contour>
    <contour>
      <point x="406" y="0" type="move" name="ogonek"/>
    </contour>
    <contour>
      <point x="252" y="407" type="move" name="top"/>
    </contour>
    <contour>
      <point x="490" y="407" type="move" name="topright"/>
    </contour>
    <contour>
      <point x="262" y="0" type="move" name="bottom"/>
    </contour>
  </outline>
</glyph>
<glyph name="v" format="1">
  <advance width="437"/>
  <unicode hex="0076"/>
  <outline>
    <contour>
      <point x="307" y="27" type="line"/>
      <point x="338" y="140"/>
      <point x="387" y="304"/>
      <point x="432" y="413" type="curve"/>
      <point x="398" y="413"/>
      <point x="365" y="411"/>
      <point x="326" y="402" type="curve"/>
      <point x="341" y="369"/>
      <point x="328" y="316"/>
      <point x="255" y="82" type="curve"/>
      <point x="217" y="155"/>
      <point x="162" y="335"/>
      <point x="148" y="413" type="curve"/>
      <point x="95" y="413"/>
      <point x="47" y="408"/>
      <point x="5" y="392" type="curve"/>
      <point x="109" y="264"/>
      <point x="107" y="-9"/>
      <point x="220" y="-9" type="curve"/>
    </contour>
    <contour>
      <point x="231" y="407" type="move" name="top"/>
    </contour>
    <contour>
      <point x="231" y="0" type="move" name="bottom"/>
    </contour>
  </outline>
</glyph>
<glyph name="w" format="1">
  <advance width="699"/>
  <unicode hex="0077"/>
  <outline>
    <contour>
      <point x="290" y="23" type="line"/>
      <point x="310" y="90"/>
      <point x="331" y="160"/>
      <point x="353" y="226" type="curve"/>
      <point x="367" y="177"/>
      <point x="383" y="126"/>
      <point x="400" y="73" type="curve" smooth="yes"/>
      <point x="420" y="14"/>
      <point x="449" y="-9"/>
      <point x="485" y="-9" type="curve"/>
      <point x="562" y="23" type="line"/>
      <point x="602" y="160"/>
      <point x="652" y="316"/>
      <point x="694" y="413" type="curve"/>
      <point x="657" y="413"/>
      <point x="624" y="411"/>
      <point x="588" y="402" type="curve"/>
      <point x="601" y="370"/>
      <point x="589" y="322"/>
      <point x="514" y="92" type="curve"/>
      <point x="477" y="191"/>
      <point x="427" y="355"/>
      <point x="417" y="413" type="curve"/>
      <point x="364" y="413"/>
      <point x="317" y="408"/>
      <point x="277" y="392" type="curve"/>
      <point x="290" y="379"/>
      <point x="305" y="354"/>
      <point x="318" y="323" type="curve"/>
      <point x="307" y="278"/>
      <point x="285" y="207"/>
      <point x="246" y="85" type="curve"/>
      <point x="223" y="139"/>
      <point x="156" y="352"/>
      <point x="146" y="413" type="curve"/>
      <point x="92" y="413"/>
      <point x="45" y="408"/>
      <point x="5" y="392" type="curve"/>
      <point x="25" y="373"/>
      <point x="49" y="324"/>
      <point x="66" y="272" type="curve" smooth="yes"/>
      <point x="87" y="208"/>
      <point x="105" y="144"/>
      <point x="129" y="73" type="curve" smooth="yes"/>
      <point x="148" y="14"/>
      <point x="177" y="-9"/>
      <point x="213" y="-9" type="curve"/>
    </contour>
    <contour>
      <point x="350" y="407" type="move" name="top"/>
    </contour>
    <contour>
      <point x="350" y="0" type="move" name="bottom"/>
    </contour>
  </outline>
</glyph>
<glyph name="y" format="1">
  <advance width="491"/>
  <unicode hex="0079"/>
  <outline>
    <contour>
      <point x="342" y="-180"/>
      <point x="435" y="-125"/>
      <point x="435" y="0" type="curve" smooth="yes"/>
      <point x="435" y="28"/>
      <point x="431" y="88"/>
      <point x="431" y="167" type="curve" smooth="yes"/>
      <point x="431" y="279"/>
      <point x="433" y="359"/>
      <point x="438" y="417" type="curve"/>
      <point x="384" y="417"/>
      <point x="343" y="411"/>
      <point x="301" y="397" type="curve"/>
      <point x="313" y="372"/>
      <point x="320" y="320"/>
      <point x="320" y="257" type="curve" smooth="yes"/>
      <point x="320" y="237"/>
      <point x="322" y="205"/>
      <point x="323" y="134" type="curve"/>
      <point x="301" y="116"/>
      <point x="277" y="109"/>
      <point x="245" y="109" type="curve" smooth="yes"/>
      <point x="200" y="109"/>
      <point x="182" y="131"/>
      <point x="182" y="184" type="curve" smooth="yes"/>
      <point x="182" y="280"/>
      <point x="184" y="365"/>
      <point x="188" y="417" type="curve"/>
      <point x="142" y="417"/>
      <point x="81" y="409"/>
      <point x="50" y="397" type="curve"/>
      <point x="63" y="370"/>
      <point x="70" y="326"/>
      <point x="70" y="264" type="curve" smooth="yes"/>
      <point x="70" y="236"/>
      <point x="66" y="169"/>
      <point x="66" y="144" type="curve" smooth="yes"/>
      <point x="66" y="86"/>
      <point x="81" y="44"/>
      <point x="115" y="23" type="curve"/>
      <point x="66" y="-24"/>
      <point x="37" y="-85"/>
      <point x="37" y="-132" type="curve"/>
      <point x="77" y="-162"/>
      <point x="140" y="-180"/>
      <point x="217" y="-180" type="curve" smooth="yes"/>
    </contour>
    <contour>
      <point x="186" y="-113"/>
      <point x="151" y="-99"/>
      <point x="127" y="-76" type="curve"/>
      <point x="133" y="-48"/>
      <point x="147" y="-20"/>
      <point x="165" y="7" type="curve"/>
      <point x="228" y="3"/>
      <point x="283" y="25"/>
      <point x="323" y="73" type="curve"/>
      <point x="323" y="17" type="line" smooth="yes"/>
      <point x="323" y="-75"/>
      <point x="286" y="-113"/>
      <point x="222" y="-113" type="curve" smooth="yes"/>
    </contour>
    <contour>
      <point x="242" y="407" type="move" name="top"/>
    </contour>
    <contour>
      <point x="242" y="0" type="move" name="bottom"/>
    </contour>
  </outline>
</glyph>
<glyph name="z" format="1">
  <advance width="426"/>
  <unicode hex="007A"/>
  <outline>
    <contour>
      <point x="383" y="17"/>
      <point x="391" y="81"/>
      <point x="391" y="120" type="curve"/>
      <point x="356" y="103"/>
      <point x="299" y="94"/>
      <point x="248" y="94" type="curve" smooth="yes"/>
      <point x="225" y="94"/>
      <point x="200" y="96"/>
      <point x="180" y="98" type="curve"/>
      <point x="251" y="187"/>
      <point x="361" y="300"/>
      <point x="376" y="329" type="curve"/>
      <point x="381" y="338"/>
      <point x="384" y="350"/>
      <point x="384" y="364" type="curve" smooth="yes"/>
      <point x="384" y="381"/>
      <point x="376" y="408"/>
      <point x="353" y="429" type="curve"/>
      <point x="321" y="405"/>
      <point x="302" y="399"/>
      <point x="207" y="399" type="curve" smooth="yes"/>
      <point x="152" y="399"/>
      <point x="78" y="403"/>
      <point x="35" y="410" type="curve"/>
      <point x="35" y="371"/>
      <point x="45" y="319"/>
      <point x="60" y="282" type="curve"/>
      <point x="81" y="294"/>
      <point x="110" y="300"/>
      <point x="162" y="300" type="curve" smooth="yes"/>
      <point x="210" y="300"/>
      <point x="251" y="298"/>
      <point x="282" y="297" type="curve"/>
      <point x="183" y="181"/>
      <point x="92" y="82"/>
      <point x="37" y="30" type="curve"/>
      <point x="37" y="-3" type="line"/>
      <point x="113" y="2"/>
      <point x="324" y="2"/>
      <point x="372" y="-8" type="curve"/>
    </contour>
    <contour>
      <point x="211" y="407" type="move" name="top"/>
    </contour>
    <contour>
      <point x="211" y="0" type="move" name="bottom"/>
    </contour>
  </outline>
</glyph>
<glyph name="bar" format="1">
  <advance width="349"/>
  <unicode hex="007C"/>
  <outline>
    <contour>
      <point x="207" y="-111"/>
      <point x="233" y="-109"/>
      <point x="256" y="-103" type="curve"/>
      <point x="245" y="-36"/>
      <point x="240" y="52"/>
      <point x="240" y="289" type="curve" smooth="yes"/>
      <point x="240" y="374"/>
      <point x="245" y="561"/>
      <point x="251" y="630" type="curve"/>
      <point x="222" y="636"/>
      <point x="198" y="639"/>
      <point x="176" y="639" type="curve" smooth="yes"/>
      <point x="147" y="639"/>
      <point x="117" y="636"/>
      <point x="92" y="630" type="curve"/>
      <point x="103" y="573"/>
      <point x="108" y="486"/>
      <point x="108" y="289" type="curve" smooth="yes"/>
      <point x="108" y="196"/>
      <point x="103" y="-15"/>
      <point x="97" y="-103" type="curve"/>
      <point x="130" y="-109"/>
      <point x="158" y="-111"/>
      <point x="184" y="-111" type="curve" smooth="yes"/>
    </contour>
  </outline>
</glyph>
<glyph name="asciitilde" format="1">
  <advance width="533"/>
  <unicode hex="007E"/>
  <outline>
    <contour>
      <point x="416" y="202"/>
      <point x="457" y="224"/>
      <point x="470" y="300" type="curve"/>
      <point x="449" y="311"/>
      <point x="423" y="318"/>
      <point x="400" y="320" type="curve"/>
      <point x="392" y="293"/>
      <point x="375" y="283"/>
      <point x="350" y="283" type="curve" smooth="yes"/>
      <point x="287" y="283"/>
      <point x="227" y="330"/>
      <point x="165" y="330" type="curve" smooth="yes"/>
      <point x="117" y="330"/>
      <point x="75" y="307"/>
      <point x="62" y="231" type="curve"/>
      <point x="84" y="221"/>
      <point x="110" y="214"/>
      <point x="133" y="212" type="curve"/>
      <point x="140" y="238"/>
      <point x="158" y="248"/>
      <point x="182" y="248" type="curve" smooth="yes"/>
      <point x="245" y="248"/>
      <point x="305" y="202"/>
      <point x="368" y="202" type="curve" smooth="yes"/>
    </contour>
  </outline>
</glyph>
<glyph name="ordfeminine" format="1">
  <advance width="346"/>
  <unicode hex="00AA"/>
  <outline>
    <contour>
      <point x="136" y="293"/>
      <point x="172" y="305"/>
      <point x="205" y="326" type="curve"/>
      <point x="210" y="312"/>
      <point x="220" y="302"/>
      <point x="233" y="293" type="curve"/>
      <point x="259" y="295"/>
      <point x="286" y="304"/>
      <point x="307" y="318" type="curve"/>
      <point x="286" y="339"/>
      <point x="280" y="354"/>
      <point x="280" y="386" type="curve" smooth="yes"/>
      <point x="280" y="416"/>
      <point x="286" y="450"/>
      <point x="286" y="485" type="curve" smooth="yes"/>
      <point x="286" y="541"/>
      <point x="248" y="572"/>
      <point x="180" y="572" type="curve" smooth="yes"/>
      <point x="131" y="572"/>
      <point x="80" y="546"/>
      <point x="51" y="507" type="curve"/>
      <point x="60" y="469" type="line"/>
      <point x="83" y="487"/>
      <point x="116" y="498"/>
      <point x="147" y="498" type="curve" smooth="yes"/>
      <point x="184" y="498"/>
      <point x="201" y="483"/>
      <point x="203" y="446" type="curve"/>
      <point x="93" y="438"/>
      <point x="38" y="408"/>
      <point x="38" y="354" type="curve" smooth="yes"/>
      <point x="38" y="319"/>
      <point x="61" y="293"/>
      <point x="106" y="293" type="curve" smooth="yes"/>
    </contour>
    <contour>
      <point x="134" y="344"/>
      <point x="126" y="357"/>
      <point x="126" y="370" type="curve" smooth="yes"/>
      <point x="126" y="396"/>
      <point x="154" y="412"/>
      <point x="203" y="416" type="curve"/>
      <point x="202" y="395"/>
      <point x="199" y="381"/>
      <point x="199" y="362" type="curve" smooth="yes"/>
      <point x="199" y="357" type="line"/>
      <point x="182" y="347"/>
      <point x="161" y="339"/>
      <point x="144" y="337" type="curve"/>
    </contour>
  </outline>
</glyph>
<glyph name="guillemotleft" format="1">
  <advance width="488"/>
  <unicode hex="00AB"/>
  <outline>
    <contour>
      <point x="413" y="57"/>
      <point x="433" y="79"/>
      <point x="453" y="110" type="curve"/>
      <point x="341" y="222" type="line"/>
      <point x="453" y="335" type="line"/>
      <point x="433" y="366"/>
      <point x="413" y="388"/>
      <point x="377" y="416" type="curve"/>
      <point x="334" y="353"/>
      <point x="292" y="303"/>
      <point x="235" y="240" type="curve"/>
      <point x="235" y="206" type="line"/>
      <point x="292" y="142"/>
      <point x="334" y="93"/>
      <point x="377" y="30" type="curve"/>
    </contour>
    <contour>
      <point x="203" y="57"/>
      <point x="223" y="79"/>
      <point x="243" y="110" type="curve"/>
      <point x="131" y="222" type="line"/>
      <point x="243" y="335" type="line"/>
      <point x="223" y="366"/>
      <point x="203" y="388"/>
      <point x="167" y="416" type="curve"/>
      <point x="124" y="353"/>
      <point x="82" y="303"/>
      <point x="25" y="240" type="curve"/>
      <point x="25" y="206" type="line"/>
      <point x="82" y="142"/>
      <point x="124" y="93"/>
      <point x="167" y="30" type="curve"/>
    </contour>
  </outline>
</glyph>
<glyph name="degree" format="1">
  <advance width="360"/>
  <unicode hex="00B0"/>
  <outline>
    <contour>
      <point x="262" y="345"/>
      <point x="326" y="404"/>
      <point x="326" y="489" type="curve" smooth="yes"/>
      <point x="326" y="566"/>
      <point x="273" y="617"/>
      <point x="195" y="617" type="curve" smooth="yes"/>
      <point x="100" y="617"/>
      <point x="33" y="558"/>
      <point x="33" y="475" type="curve" smooth="yes"/>
      <point x="33" y="398"/>
      <point x="88" y="345"/>
      <point x="169" y="345" type="curve" smooth="yes"/>
    </contour>
    <contour>
      <point x="139" y="404"/>
      <point x="111" y="439"/>
      <point x="111" y="491" type="curve" smooth="yes"/>
      <point x="111" y="540"/>
      <point x="143" y="576"/>
      <point x="186" y="576" type="curve"/>
      <point x="225" y="568"/>
      <point x="248" y="536"/>
      <point x="248" y="488" type="curve" smooth="yes"/>
      <point x="248" y="436"/>
      <point x="221" y="404"/>
      <point x="178" y="404" type="curve" smooth="yes"/>
    </contour>
  </outline>
</glyph>
<glyph name="paragraph" format="1">
  <advance width="447"/>
  <unicode hex="00B6"/>
  <outline>
    <contour>
      <point x="333" y="-6"/>
      <point x="361" y="-4"/>
      <point x="392" y="0" type="curve"/>
      <point x="386" y="58"/>
      <point x="381" y="173"/>
      <point x="381" y="265" type="curve" smooth="yes"/>
      <point x="381" y="392"/>
      <point x="385" y="474"/>
      <point x="394" y="505" type="curve"/>
      <point x="356" y="520"/>
      <point x="286" y="532"/>
      <point x="220" y="532" type="curve" smooth="yes"/>
      <point x="95" y="532"/>
      <point x="23" y="484"/>
      <point x="23" y="372" type="curve" smooth="yes"/>
      <point x="23" y="291"/>
      <point x="68" y="228"/>
      <point x="122" y="196" type="curve"/>
      <point x="154" y="196"/>
      <point x="206" y="210"/>
      <point x="259" y="230" type="curve"/>
      <point x="257" y="112"/>
      <point x="252" y="35"/>
      <point x="243" y="0" type="curve"/>
      <point x="265" y="-4"/>
      <point x="287" y="-6"/>
      <point x="309" y="-6" type="curve" smooth="yes"/>
    </contour>
  </outline>
</glyph>
<glyph name="ordmasculine" format="1">
  <advance width="390"/>
  <unicode hex="00BA"/>
  <outline>
    <contour>
      <point x="278" y="293"/>
      <point x="346" y="353"/>
      <point x="346" y="440" type="curve" smooth="yes"/>
      <point x="346" y="519"/>
      <point x="290" y="572"/>
      <point x="205" y="572" type="curve" smooth="yes"/>
      <point x="110" y="572"/>
      <point x="43" y="511"/>
      <point x="43" y="425" type="curve" smooth="yes"/>
      <point x="43" y="346"/>
      <point x="98" y="293"/>
      <point x="181" y="293" type="curve" smooth="yes"/>
    </contour>
    <contour>
      <point x="154" y="333"/>
      <point x="127" y="366"/>
      <point x="127" y="417" type="curve" smooth="yes"/>
      <point x="127" y="468"/>
      <point x="156" y="499"/>
      <point x="202" y="499" type="curve"/>
      <point x="240" y="488"/>
      <point x="264" y="455"/>
      <point x="264" y="412" type="curve" smooth="yes"/>
      <point x="264" y="362"/>
      <point x="238" y="333"/>
      <point x="193" y="333" type="curve" smooth="yes"/>
    </contour>
  </outline>
</glyph>
<glyph name="AE" format="1">
  <advance width="700"/>
  <unicode hex="00C6"/>
  <outline>
    <contour>
      <point x="63" y="-4"/>
      <point x="76" y="-2"/>
      <point x="91" y="2" type="curve"/>
      <point x="101" y="31"/>
      <point x="116" y="75"/>
      <point x="135" y="125" type="curve"/>
      <point x="156" y="128"/>
      <point x="189" y="129"/>
      <point x="231" y="129" type="curve" smooth="yes"/>
      <point x="269" y="129"/>
      <point x="312" y="128"/>
      <point x="347" y="126" type="curve"/>
      <point x="366" y="76"/>
      <point x="381" y="31"/>
      <point x="391" y="2" type="curve"/>
      <point x="423" y="4"/>
      <point x="477" y="5"/>
      <point x="532" y="5" type="curve" smooth="yes"/>
      <point x="581" y="5"/>
      <point x="633" y="2"/>
      <point x="667" y="-3" type="curve"/>
      <point x="680" y="17"/>
      <point x="688" y="78"/>
      <point x="688" y="118" type="curve"/>
      <point x="635" y="98"/>
      <point x="583" y="93"/>
      <point x="486" y="93" type="curve"/>
      <point x="470" y="131"/>
      <point x="451" y="179"/>
      <point x="432" y="228" type="curve"/>
      <point x="495" y="228"/>
      <point x="539" y="227"/>
      <point x="605" y="221" type="curve"/>
      <point x="607" y="237"/>
      <point x="609" y="253"/>
      <point x="609" y="266" type="curve" smooth="yes"/>
      <point x="609" y="281"/>
      <point x="607" y="296"/>
      <point x="605" y="310" type="curve"/>
      <point x="566" y="303"/>
      <point x="540" y="299"/>
      <point x="468" y="299" type="curve" smooth="yes"/>
      <point x="448" y="299"/>
      <point x="426" y="300"/>
      <point x="405" y="301" type="curve"/>
      <point x="359" y="426" type="line"/>
      <point x="388" y="430"/>
      <point x="425" y="433"/>
      <point x="458" y="433" type="curve" smooth="yes"/>
      <point x="510" y="433"/>
      <point x="569" y="424"/>
      <point x="605" y="406" type="curve"/>
      <point x="618" y="425"/>
      <point x="626" y="487"/>
      <point x="626" y="527" type="curve"/>
      <point x="572" y="522"/>
      <point x="491" y="520"/>
      <point x="413" y="520" type="curve" smooth="yes"/>
      <point x="334" y="520"/>
      <point x="256" y="522"/>
      <point x="209" y="527" type="curve"/>
      <point x="170" y="409"/>
      <point x="45" y="75"/>
      <point x="4" y="2" type="curve"/>
      <point x="20" y="-2"/>
      <point x="36" y="-4"/>
      <point x="51" y="-4" type="curve" smooth="yes"/>
    </contour>
    <contour>
      <point x="234" y="198"/>
      <point x="195" y="199"/>
      <point x="162" y="201" type="curve"/>
      <point x="189" y="274"/>
      <point x="218" y="350"/>
      <point x="241" y="404" type="curve"/>
      <point x="262" y="355"/>
      <point x="291" y="277"/>
      <point x="320" y="200" type="curve"/>
      <point x="304" y="199"/>
      <point x="286" y="198"/>
      <point x="268" y="198" type="curve" smooth="yes"/>
    </contour>
    <contour>
      <point x="356" y="527" type="move" name="top"/>
    </contour>
    <contour>
      <point x="356" y="0" type="move" name="bottom"/>
    </contour>
  </outline>
</glyph>
<glyph name="germandbls" format="1">
  <advance width="545"/>
  <unicode hex="00DF"/>
  <outline>
    <contour>
      <point x="124" y="-97"/>
      <point x="158" y="-52"/>
      <point x="169" y="13" type="curve"/>
      <point x="206" y="-3"/>
      <point x="249" y="-11"/>
      <point x="294" y="-11" type="curve" smooth="yes"/>
      <point x="435" y="-11"/>
      <point x="510" y="48"/>
      <point x="510" y="157" type="curve" smooth="yes"/>
      <point x="510" y="236"/>
      <point x="450" y="300"/>
      <point x="365" y="309" type="curve"/>
      <point x="421" y="359" type="line" smooth="yes"/>
      <point x="473" y="406"/>
      <point x="492" y="437"/>
      <point x="492" y="475" type="curve" smooth="yes"/>
      <point x="492" y="504"/>
      <point x="481" y="531"/>
      <point x="461" y="546" type="curve"/>
      <point x="427" y="525"/>
      <point x="377" y="516"/>
      <point x="286" y="516" type="curve" smooth="yes"/>
      <point x="203" y="516"/>
      <point x="138" y="520"/>
      <point x="106" y="527" type="curve"/>
      <point x="78" y="488"/>
      <point x="54" y="449"/>
      <point x="54" y="369" type="curve" smooth="yes"/>
      <point x="54" y="259"/>
      <point x="63" y="154"/>
      <point x="63" y="89" type="curve" smooth="yes"/>
      <point x="63" y="-47"/>
      <point x="52" y="-87"/>
      <point x="20" y="-137" type="curve"/>
      <point x="47" y="-159" type="line"/>
    </contour>
    <contour>
      <point x="240" y="57"/>
      <point x="201" y="69"/>
      <point x="172" y="89" type="curve"/>
      <point x="171" y="134"/>
      <point x="166" y="198"/>
      <point x="166" y="281" type="curve" smooth="yes"/>
      <point x="166" y="337"/>
      <point x="167" y="379"/>
      <point x="169" y="412" type="curve"/>
      <point x="195" y="417"/>
      <point x="228" y="420"/>
      <point x="266" y="420" type="curve" smooth="yes"/>
      <point x="319" y="420"/>
      <point x="376" y="418"/>
      <point x="400" y="415" type="curve"/>
      <point x="256" y="288" type="line" smooth="yes"/>
      <point x="234" y="270"/>
      <point x="222" y="253"/>
      <point x="218" y="238" type="curve"/>
      <point x="218" y="228"/>
      <point x="245" y="212"/>
      <point x="262" y="212" type="curve"/>
      <point x="278" y="239"/>
      <point x="305" y="258"/>
      <point x="328" y="258" type="curve"/>
      <point x="366" y="241"/>
      <point x="388" y="204"/>
      <point x="388" y="157" type="curve" smooth="yes"/>
      <point x="388" y="94"/>
      <point x="349" y="57"/>
      <point x="282" y="57" type="curve" smooth="yes"/>
    </contour>
  </outline>
</glyph>
<glyph name="thorn" format="1">
  <advance width="505"/>
  <unicode hex="00FE"/>
  <outline>
    <contour>
      <point x="108" y="-180"/>
      <point x="149" y="-174"/>
      <point x="191" y="-160" type="curve"/>
      <point x="183" y="-121"/>
      <point x="178" y="-68"/>
      <point x="175" y="4" type="curve"/>
      <point x="197" y="-5"/>
      <point x="221" y="-9"/>
      <point x="247" y="-9" type="curve" smooth="yes"/>
      <point x="386" y="-9"/>
      <point x="467" y="73"/>
      <point x="467" y="212" type="curve" smooth="yes"/>
      <point x="467" y="344"/>
      <point x="409" y="413"/>
      <point x="304" y="413" type="curve" smooth="yes"/>
      <point x="256" y="413"/>
      <point x="209" y="394"/>
      <point x="175" y="363" type="curve"/>
      <point x="177" y="444"/>
      <point x="180" y="508"/>
      <point x="184" y="547" type="curve"/>
      <point x="136" y="547"/>
      <point x="95" y="543"/>
      <point x="47" y="527" type="curve"/>
      <point x="60" y="472"/>
      <point x="66" y="384"/>
      <point x="66" y="255" type="curve" smooth="yes"/>
      <point x="66" y="74"/>
      <point x="61" y="-96"/>
      <point x="54" y="-180" type="curve"/>
    </contour>
    <contour>
      <point x="218" y="48"/>
      <point x="193" y="60"/>
      <point x="173" y="81" type="curve"/>
      <point x="171" y="137"/>
      <point x="171" y="223"/>
      <point x="174" y="294" type="curve"/>
      <point x="200" y="309"/>
      <point x="235" y="319"/>
      <point x="266" y="319" type="curve"/>
      <point x="316" y="298"/>
      <point x="346" y="246"/>
      <point x="346" y="177" type="curve" smooth="yes"/>
      <point x="346" y="96"/>
      <point x="308" y="48"/>
      <point x="245" y="48" type="curve" smooth="yes"/>
    </contour>
    <contour>
      <point x="252" y="407" type="move" name="top"/>
    </contour>
    <contour>
      <point x="252" y="0" type="move" name="bottom"/>
    </contour>
  </outline>
</glyph>
<glyph name="eng" format="1">
  <advance width="514"/>
  <unicode hex="014B"/>
  <outline>
    <contour>
      <point x="383" y="-111"/>
      <point x="448" y="-63"/>
      <point x="448" y="63" type="curve" smooth="yes"/>
      <point x="448" y="115"/>
      <point x="452" y="232"/>
      <point x="452" y="280" type="curve" smooth="yes"/>
      <point x="452" y="362"/>
      <point x="422" y="418"/>
      <point x="335" y="418" type="curve" smooth="yes"/>
      <point x="284" y="418"/>
      <point x="236" y="394"/>
      <point x="201" y="355" type="curve"/>
      <point x="195" y="392"/>
      <point x="175" y="414"/>
      <point x="134" y="414" type="curve" smooth="yes"/>
      <point x="113" y="414"/>
      <point x="76" y="405"/>
      <point x="47" y="378" type="curve"/>
      <point x="78" y="344"/>
      <point x="86" y="321"/>
      <point x="86" y="213" type="curve" smooth="yes"/>
      <point x="86" y="139"/>
      <point x="83" y="57"/>
      <point x="79" y="0" type="curve"/>
      <point x="102" y="-4"/>
      <point x="133" y="-6"/>
      <point x="155" y="-6" type="curve" smooth="yes"/>
      <point x="176" y="-6"/>
      <point x="199" y="-4"/>
      <point x="218" y="0" type="curve"/>
      <point x="205" y="29"/>
      <point x="198" y="82"/>
      <point x="198" y="150" type="curve" smooth="yes"/>
      <point x="198" y="205"/>
      <point x="200" y="252"/>
      <point x="202" y="290" type="curve"/>
      <point x="221" y="304"/>
      <point x="244" y="310"/>
      <point x="273" y="310" type="curve" smooth="yes"/>
      <point x="318" y="310"/>
      <point x="336" y="288"/>
      <point x="336" y="235" type="curve" smooth="yes"/>
      <point x="336" y="106" type="line" smooth="yes"/>
      <point x="336" y="-48"/>
      <point x="303" y="-101"/>
      <point x="237" y="-161" type="curve"/>
      <point x="253" y="-189" type="line"/>
    </contour>
  </outline>
</glyph>
<glyph name="uni0237" format="1">
  <advance width="250"/>
  <unicode hex="0237"/>
  <outline>
    <contour>
      <point x="121" y="-111"/>
      <point x="186" y="-63"/>
      <point x="186" y="63" type="curve" smooth="yes"/>
      <point x="186" y="110"/>
      <point x="183" y="129"/>
      <point x="183" y="172" type="curve" smooth="yes"/>
      <point x="183" y="257"/>
      <point x="185" y="374"/>
      <point x="190" y="417" type="curve"/>
      <point x="142" y="417"/>
      <point x="101" y="413"/>
      <point x="53" y="397" type="curve"/>
      <point x="72" y="367"/>
      <point x="74" y="320"/>
      <point x="74" y="106" type="curve" smooth="yes"/>
      <point x="74" y="-48"/>
      <point x="41" y="-101"/>
      <point x="-25" y="-161" type="curve"/>
      <point x="-9" y="-189" type="line"/>
    </contour>
    <contour>
      <point x="129" y="407" type="move" name="top"/>
    </contour>
    <contour>
      <point x="129" y="0" type="move" name="bottom"/>
    </contour>
  </outline>
</glyph>
<glyph name="tildecomb" format="1">
  <advance width="300"/>
  <unicode hex="0303"/>
  <outline>
    <contour>
      <point x="65" y="604"/>
      <point x="262" y="365"/>
      <point x="289" y="584" type="curve"/>
      <point x="262" y="596" type="line"/>
      <point x="243" y="500"/>
      <point x="46" y="739"/>
      <point x="18" y="520" type="curve"/>
      <point x="45" y="508" type="line"/>
    </contour>
    <contour>
      <point x="154" y="607" type="move" name="top"/>
    </contour>
    <contour>
      <point x="154" y="407" type="move" name="_top"/>
    </contour>
  </outline>
</glyph>
<glyph name="uni0307" format="1">
  <advance width="219"/>
  <unicode hex="0307"/>
  <outline>
    <contour>
      <point x="137" y="490"/>
      <point x="161" y="515"/>
      <point x="184" y="542" type="curve"/>
      <point x="157" y="565"/>
      <point x="132" y="590"/>
      <point x="109" y="617" type="curve"/>
      <point x="82" y="594"/>
      <point x="57" y="570"/>
      <point x="34" y="542" type="curve"/>
      <point x="62" y="519"/>
      <point x="86" y="495"/>
      <point x="109" y="467" type="curve"/>
    </contour>
    <contour>
      <point x="110" y="607" type="move" name="top"/>
    </contour>
    <contour>
      <point x="110" y="407" type="move" name="_top"/>
    </contour>
  </outline>
</glyph>
<glyph name="uni030B" format="1">
  <advance width="388"/>
  <unicode hex="030B"/>
  <outline>
    <contour>
      <point x="275" y="479"/>
      <point x="346" y="516"/>
      <point x="388" y="566" type="curve"/>
      <point x="368" y="600"/>
      <point x="329" y="618"/>
      <point x="273" y="618" type="curve"/>
      <point x="267" y="573"/>
      <point x="232" y="520"/>
      <point x="190" y="497" type="curve"/>
      <point x="200" y="467" type="line"/>
    </contour>
    <contour>
      <point x="85" y="479"/>
      <point x="156" y="516"/>
      <point x="198" y="566" type="curve"/>
      <point x="178" y="600"/>
      <point x="139" y="618"/>
      <point x="83" y="618" type="curve"/>
      <point x="77" y="573"/>
      <point x="42" y="520"/>
      <point x="0" y="497" type="curve"/>
      <point x="10" y="467" type="line"/>
    </contour>
    <contour>
      <point x="194" y="618" type="move" name="top"/>
    </contour>
    <contour>
      <point x="164" y="407" type="move" name="_top"/>
    </contour>
  </outline>
</glyph>
<glyph name="uni030C" format="1">
  <advance width="285"/>
  <unicode hex="030C"/>
  <outline>
    <contour>
      <point x="130" y="476"/>
      <point x="165" y="479"/>
      <point x="195" y="490" type="curve"/>
      <point x="219" y="525"/>
      <point x="256" y="575"/>
      <point x="285" y="609" type="curve"/>
      <point x="254" y="615"/>
      <point x="235" y="617"/>
      <point x="211" y="617" type="curve"/>
      <point x="161" y="539" type="line"/>
      <point x="108" y="617" type="line"/>
      <point x="66" y="617"/>
      <point x="31" y="613"/>
      <point x="0" y="603" type="curve"/>
      <point x="25" y="576"/>
      <point x="60" y="526"/>
      <point x="88" y="476" type="curve"/>
    </contour>
    <contour>
      <point x="142" y="617" type="move" name="top"/>
    </contour>
    <contour>
      <point x="137" y="407" type="move" name="_top"/>
    </contour>
  </outline>
</glyph>
<glyph name="uni0326" format="1">
  <advance width="173"/>
  <unicode hex="0326"/>
  <outline>
    <contour>
      <point x="125" y="-205"/>
      <point x="150" y="-145"/>
      <point x="150" y="-62" type="curve"/>
      <point x="118" y="-40" type="line"/>
      <point x="85" y="-45"/>
      <point x="47" y="-62"/>
      <point x="22" y="-84" type="curve"/>
      <point x="42" y="-105"/>
      <point x="57" y="-143"/>
      <point x="57" y="-169" type="curve" smooth="yes"/>
      <point x="57" y="-194"/>
      <point x="51" y="-219"/>
      <point x="39" y="-238" type="curve"/>
      <point x="69" y="-261" type="line"/>
    </contour>
    <contour>
      <point x="86" y="0" type="move" name="_bottom"/>
    </contour>
    <contour>
      <point x="86" y="-264" type="move" name="bottom"/>
    </contour>
  </outline>
</glyph>
<glyph name="uni0328" format="1">
  <advance width="216"/>
  <unicode hex="0328"/>
  <outline>
    <contour>
      <point x="145" y="-211"/>
      <point x="190" y="-188"/>
      <point x="214" y="-155" type="curve"/>
      <point x="203" y="-124" type="line"/>
      <point x="185" y="-140"/>
      <point x="161" y="-150"/>
      <point x="139" y="-150" type="curve" smooth="yes"/>
      <point x="103" y="-150"/>
      <point x="81" y="-127"/>
      <point x="81" y="-89" type="curve" smooth="yes"/>
      <point x="81" y="-46"/>
      <point x="108" y="-15"/>
      <point x="156" y="0" type="curve"/>
      <point x="64" y="0"/>
      <point x="3" y="-48"/>
      <point x="2" y="-118" type="curve" smooth="yes"/>
      <point x="2" y="-177"/>
      <point x="39" y="-211"/>
      <point x="102" y="-211" type="curve" smooth="yes"/>
    </contour>
    <contour>
      <point x="156" y="0" type="move" name="_ogonek"/>
    </contour>
  </outline>
</glyph>
<glyph name="uni0336" format="1">
  <advance width="632"/>
  <unicode hex="0336"/>
  <outline>
    <contour>
      <point x="131" y="189"/>
      <point x="172" y="192"/>
      <point x="304" y="192" type="curve" smooth="yes"/>
      <point x="398" y="192"/>
      <point x="514" y="189"/>
      <point x="576" y="185" type="curve"/>
      <point x="580" y="199"/>
      <point x="584" y="214"/>
      <point x="584" y="226" type="curve" smooth="yes"/>
      <point x="584" y="240"/>
      <point x="580" y="253"/>
      <point x="576" y="266" type="curve"/>
      <point x="508" y="260"/>
      <point x="460" y="257"/>
      <point x="330" y="257" type="curve" smooth="yes"/>
      <point x="235" y="257"/>
      <point x="122" y="259"/>
      <point x="57" y="264" type="curve"/>
      <point x="51" y="250"/>
      <point x="48" y="235"/>
      <point x="48" y="223" type="curve" smooth="yes"/>
      <point x="48" y="210"/>
      <point x="51" y="196"/>
      <point x="57" y="183" type="curve"/>
    </contour>
    <contour>
      <point x="317" y="224" type="move" name="_center"/>
    </contour>
  </outline>
</glyph>
<glyph name="uni0337" format="1">
  <advance width="357"/>
  <unicode hex="0337"/>
  <outline>
    <contour>
      <point x="108" y="184"/>
      <point x="130" y="200"/>
      <point x="194" y="233" type="curve" smooth="yes"/>
      <point x="237" y="255"/>
      <point x="294" y="280"/>
      <point x="323" y="290" type="curve"/>
      <point x="319" y="311"/>
      <point x="297" y="352"/>
      <point x="283" y="369" type="curve"/>
      <point x="251" y="345"/>
      <point x="229" y="329"/>
      <point x="165" y="296" type="curve" smooth="yes"/>
      <point x="121" y="274"/>
      <point x="65" y="249"/>
      <point x="35" y="239" type="curve"/>
      <point x="40" y="218"/>
      <point x="61" y="177"/>
      <point x="76" y="160" type="curve"/>
    </contour>
    <contour>
      <point x="179" y="264" type="move" name="_center"/>
    </contour>
  </outline>
</glyph>
<glyph name="uni0338" format="1">
  <advance width="330"/>
  <unicode hex="0338"/>
  <outline>
    <contour>
      <point x="41" y="-100"/>
      <point x="59" y="-96"/>
      <point x="76" y="-91" type="curve"/>
      <point x="98" y="3"/>
      <point x="281" y="438"/>
      <point x="350" y="592" type="curve"/>
      <point x="334" y="597"/>
      <point x="320" y="601"/>
      <point x="307" y="601" type="curve" smooth="yes"/>
      <point x="290" y="601"/>
      <point x="271" y="597"/>
      <point x="254" y="592" type="curve"/>
      <point x="233" y="499"/>
      <point x="50" y="63"/>
      <point x="-20" y="-91" type="curve"/>
      <point x="-4" y="-96"/>
      <point x="10" y="-100"/>
      <point x="24" y="-100" type="curve" smooth="yes"/>
    </contour>
    <contour>
      <point x="165" y="251" type="move" name="_center"/>
    </contour>
  </outline>
</glyph>
<glyph name="uni03A9" format="1">
  <advance width="580"/>
  <unicode hex="03A9"/>
  <outline>
    <contour>
      <point x="95" y="-1"/>
      <point x="146" y="1"/>
      <point x="196" y="1" type="curve" smooth="yes"/>
      <point x="235" y="1" type="line"/>
      <point x="235" y="119" type="line"/>
      <point x="184" y="146"/>
      <point x="152" y="203"/>
      <point x="152" y="277" type="curve" smooth="yes"/>
      <point x="152" y="368"/>
      <point x="215" y="434"/>
      <point x="303" y="434" type="curve"/>
      <point x="380" y="418"/>
      <point x="428" y="356"/>
      <point x="428" y="274" type="curve" smooth="yes"/>
      <point x="428" y="201"/>
      <point x="398" y="146"/>
      <point x="346" y="120" type="curve"/>
      <point x="346" y="1" type="line"/>
      <point x="385" y="1" type="line" smooth="yes"/>
      <point x="435" y="1"/>
      <point x="487" y="-1"/>
      <point x="536" y="-3" type="curve"/>
      <point x="538" y="9"/>
      <point x="539" y="21"/>
      <point x="539" y="33" type="curve" smooth="yes"/>
      <point x="539" y="46"/>
      <point x="538" y="63"/>
      <point x="536" y="78" type="curve"/>
      <point x="497" y="68"/>
      <point x="452" y="58"/>
      <point x="410" y="56" type="curve"/>
      <point x="410" y="99" type="line"/>
      <point x="495" y="140"/>
      <point x="549" y="219"/>
      <point x="549" y="318" type="curve" smooth="yes"/>
      <point x="549" y="447"/>
      <point x="451" y="533"/>
      <point x="307" y="533" type="curve" smooth="yes"/>
      <point x="145" y="533"/>
      <point x="32" y="434"/>
      <point x="32" y="293" type="curve" smooth="yes"/>
      <point x="32" y="195"/>
      <point x="85" y="122"/>
      <point x="171" y="92" type="curve"/>
      <point x="171" y="56" type="line"/>
      <point x="129" y="58"/>
      <point x="86" y="68"/>
      <point x="45" y="78" type="curve"/>
      <point x="43" y="63"/>
      <point x="42" y="46"/>
      <point x="42" y="33" type="curve" smooth="yes"/>
      <point x="42" y="21"/>
      <point x="43" y="9"/>
      <point x="45" y="-3" type="curve"/>
    </contour>
  </outline>
</glyph>
<glyph name="endash" format="1">
  <advance width="542"/>
  <unicode hex="2013"/>
  <outline>
    <contour>
      <point x="106" y="138"/>
      <point x="195" y="147"/>
      <point x="279" y="147" type="curve" smooth="yes"/>
      <point x="349" y="147"/>
      <point x="419" y="146"/>
      <point x="497" y="142" type="curve"/>
      <point x="497" y="186"/>
      <point x="491" y="224"/>
      <point x="471" y="268" type="curve"/>
      <point x="435" y="258"/>
      <point x="346" y="249"/>
      <point x="263" y="249" type="curve" smooth="yes"/>
      <point x="192" y="249"/>
      <point x="123" y="250"/>
      <point x="45" y="254" type="curve"/>
      <point x="45" y="210"/>
      <point x="51" y="172"/>
      <point x="71" y="128" type="curve"/>
    </contour>
  </outline>
</glyph>
<glyph name="emdash" format="1">
  <advance width="760"/>
  <unicode hex="2014"/>
  <outline>
    <contour>
      <point x="128" y="138"/>
      <point x="263" y="147"/>
      <point x="392" y="147" type="curve" smooth="yes"/>
      <point x="495" y="147"/>
      <point x="599" y="146"/>
      <point x="715" y="142" type="curve"/>
      <point x="715" y="186"/>
      <point x="708" y="224"/>
      <point x="685" y="268" type="curve"/>
      <point x="630" y="258"/>
      <point x="494" y="249"/>
      <point x="367" y="249" type="curve" smooth="yes"/>
      <point x="263" y="249"/>
      <point x="160" y="250"/>
      <point x="45" y="254" type="curve"/>
      <point x="45" y="210"/>
      <point x="52" y="172"/>
      <point x="74" y="128" type="curve"/>
    </contour>
  </outline>
</glyph>
<glyph name="bullet" format="1">
  <advance width="354"/>
  <unicode hex="2022"/>
  <outline>
    <contour>
      <point x="231" y="176"/>
      <point x="276" y="222"/>
      <point x="321" y="276" type="curve"/>
      <point x="267" y="320"/>
      <point x="221" y="366"/>
      <point x="177" y="420" type="curve"/>
      <point x="122" y="376"/>
      <point x="77" y="330"/>
      <point x="32" y="276" type="curve"/>
      <point x="87" y="231"/>
      <point x="132" y="186"/>
      <point x="177" y="132" type="curve"/>
    </contour>
  </outline>
</glyph>
<glyph name="guilsinglleft" format="1">
  <advance width="278"/>
  <unicode hex="2039"/>
  <outline>
    <contour>
      <point x="203" y="57"/>
      <point x="223" y="79"/>
      <point x="243" y="110" type="curve"/>
      <point x="131" y="222" type="line"/>
      <point x="243" y="335" type="line"/>
      <point x="223" y="366"/>
      <point x="203" y="388"/>
      <point x="167" y="416" type="curve"/>
      <point x="124" y="353"/>
      <point x="82" y="303"/>
      <point x="25" y="240" type="curve"/>
      <point x="25" y="206" type="line"/>
      <point x="82" y="142"/>
      <point x="124" y="93"/>
      <point x="167" y="30" type="curve"/>
    </contour>
  </outline>
</glyph>
<glyph name="uni2113" format="1">
  <advance width="289"/>
  <unicode hex="2113"/>
  <outline>
    <contour>
      <point x="219" y="-9"/>
      <point x="266" y="52"/>
      <point x="266" y="135" type="curve"/>
      <point x="241" y="135" type="line"/>
      <point x="241" y="94"/>
      <point x="222" y="59"/>
      <point x="200" y="53" type="curve"/>
      <point x="192" y="79"/>
      <point x="190" y="111"/>
      <point x="190" y="192" type="curve" smooth="yes"/>
      <point x="190" y="246" type="line"/>
      <point x="239" y="298"/>
      <point x="261" y="367"/>
      <point x="261" y="423" type="curve" smooth="yes"/>
      <point x="261" y="493"/>
      <point x="230" y="547"/>
      <point x="181" y="547" type="curve" smooth="yes"/>
      <point x="141" y="547"/>
      <point x="112" y="536"/>
      <point x="84" y="514" type="curve"/>
      <point x="84" y="317" type="line" smooth="yes"/>
      <point x="84" y="234"/>
      <point x="80" y="161"/>
      <point x="80" y="88" type="curve" smooth="yes"/>
      <point x="80" y="14"/>
      <point x="99" y="-9"/>
      <point x="147" y="-9" type="curve" smooth="yes"/>
    </contour>
    <contour>
      <point x="190" y="497" type="line"/>
      <point x="213" y="497"/>
      <point x="236" y="466"/>
      <point x="236" y="423" type="curve" smooth="yes"/>
      <point x="236" y="372"/>
      <point x="219" y="322"/>
      <point x="190" y="282" type="curve"/>
    </contour>
  </outline>
</glyph>
<glyph name="trademark" format="1">
  <advance width="691"/>
  <unicode hex="2122"/>
  <outline>
    <contour>
      <point x="333" y="323"/>
      <point x="341" y="324"/>
      <point x="349" y="326" type="curve"/>
      <point x="345" y="341"/>
      <point x="343" y="380"/>
      <point x="343" y="440" type="curve" smooth="yes"/>
      <point x="343" y="462"/>
      <point x="343" y="486"/>
      <point x="344" y="508" type="curve"/>
      <point x="377" y="445"/>
      <point x="417" y="364"/>
      <point x="434" y="326" type="curve"/>
      <point x="438" y="325"/>
      <point x="442" y="324"/>
      <point x="447" y="324" type="curve" smooth="yes"/>
      <point x="451" y="324"/>
      <point x="456" y="325"/>
      <point x="461" y="326" type="curve"/>
      <point x="480" y="367"/>
      <point x="524" y="459"/>
      <point x="559" y="524" type="curve"/>
      <point x="559" y="510"/>
      <point x="560" y="494"/>
      <point x="560" y="476" type="curve" smooth="yes"/>
      <point x="560" y="424"/>
      <point x="557" y="359"/>
      <point x="554" y="326" type="curve"/>
      <point x="567" y="324"/>
      <point x="579" y="323"/>
      <point x="590" y="323" type="curve" smooth="yes"/>
      <point x="601" y="323"/>
      <point x="614" y="324"/>
      <point x="626" y="326" type="curve"/>
      <point x="620" y="341"/>
      <point x="617" y="380"/>
      <point x="617" y="440" type="curve" smooth="yes"/>
      <point x="617" y="492"/>
      <point x="620" y="557"/>
      <point x="623" y="590" type="curve"/>
      <point x="609" y="592"/>
      <point x="596" y="593"/>
      <point x="585" y="593" type="curve" smooth="yes"/>
      <point x="572" y="593"/>
      <point x="560" y="592"/>
      <point x="551" y="590" type="curve"/>
      <point x="533" y="552"/>
      <point x="490" y="463"/>
      <point x="460" y="406" type="curve"/>
      <point x="431" y="459"/>
      <point x="386" y="552"/>
      <point x="369" y="590" type="curve"/>
      <point x="355" y="592"/>
      <point x="343" y="593"/>
      <point x="332" y="593" type="curve" smooth="yes"/>
      <point x="321" y="593"/>
      <point x="310" y="592"/>
      <point x="299" y="590" type="curve"/>
      <point x="304" y="564"/>
      <point x="305" y="530"/>
      <point x="305" y="474" type="curve" smooth="yes"/>
      <point x="305" y="423"/>
      <point x="304" y="359"/>
      <point x="301" y="326" type="curve"/>
      <point x="310" y="324"/>
      <point x="318" y="323"/>
      <point x="325" y="323" type="curve" smooth="yes"/>
    </contour>
    <contour>
      <point x="162" y="323"/>
      <point x="175" y="324"/>
      <point x="185" y="326" type="curve"/>
      <point x="179" y="341"/>
      <point x="176" y="378"/>
      <point x="176" y="440" type="curve" smooth="yes"/>
      <point x="176" y="472"/>
      <point x="177" y="511"/>
      <point x="179" y="541" type="curve"/>
      <point x="211" y="541"/>
      <point x="243" y="539"/>
      <point x="262" y="538" type="curve"/>
      <point x="264" y="547"/>
      <point x="265" y="557"/>
      <point x="265" y="565" type="curve" smooth="yes"/>
      <point x="265" y="574"/>
      <point x="264" y="582"/>
      <point x="262" y="591" type="curve"/>
      <point x="249" y="587"/>
      <point x="216" y="585"/>
      <point x="163" y="585" type="curve" smooth="yes"/>
      <point x="118" y="585"/>
      <point x="62" y="587"/>
      <point x="33" y="589" type="curve"/>
      <point x="31" y="580"/>
      <point x="30" y="572"/>
      <point x="30" y="564" type="curve" smooth="yes"/>
      <point x="30" y="556"/>
      <point x="31" y="546"/>
      <point x="33" y="536" type="curve"/>
      <point x="45" y="540"/>
      <point x="72" y="542"/>
      <point x="117" y="542" type="curve"/>
      <point x="118" y="525"/>
      <point x="119" y="503"/>
      <point x="119" y="476" type="curve" smooth="yes"/>
      <point x="119" y="426"/>
      <point x="116" y="360"/>
      <point x="113" y="326" type="curve"/>
      <point x="127" y="324"/>
      <point x="139" y="323"/>
      <point x="150" y="323" type="curve" smooth="yes"/>
    </contour>
  </outline>
</glyph>
<glyph name="partialdiff" format="1">
  <advance width="544"/>
  <unicode hex="2202"/>
  <outline>
    <contour>
      <point x="382" y="-11"/>
      <point x="489" y="133"/>
      <point x="489" y="311" type="curve" smooth="yes"/>
      <point x="489" y="481"/>
      <point x="392" y="573"/>
      <point x="209" y="573" type="curve"/>
      <point x="192" y="552"/>
      <point x="186" y="533"/>
      <point x="188" y="508" type="curve"/>
      <point x="313" y="508"/>
      <point x="370" y="433"/>
      <point x="371" y="311" type="curve"/>
      <point x="335" y="340"/>
      <point x="291" y="356"/>
      <point x="243" y="356" type="curve" smooth="yes"/>
      <point x="125" y="356"/>
      <point x="35" y="263"/>
      <point x="35" y="145" type="curve" smooth="yes"/>
      <point x="35" y="52"/>
      <point x="105" y="-11"/>
      <point x="214" y="-11" type="curve" smooth="yes"/>
    </contour>
    <contour>
      <point x="183" y="70"/>
      <point x="156" y="100"/>
      <point x="156" y="149" type="curve" smooth="yes"/>
      <point x="156" y="221"/>
      <point x="203" y="291"/>
      <point x="281" y="291" type="curve"/>
      <point x="314" y="281"/>
      <point x="342" y="265"/>
      <point x="365" y="242" type="curve"/>
      <point x="349" y="159"/>
      <point x="302" y="70"/>
      <point x="228" y="70" type="curve" smooth="yes"/>
    </contour>
  </outline>
</glyph>
<glyph name="product" format="1">
  <advance width="554"/>
  <unicode hex="220F"/>
  <outline>
    <contour>
      <point x="66" y="431"/>
      <point x="168" y="440"/>
      <point x="260" y="440" type="curve" smooth="yes"/>
      <point x="337" y="440"/>
      <point x="414" y="439"/>
      <point x="498" y="435" type="curve"/>
      <point x="519" y="474"/>
      <point x="531" y="517"/>
      <point x="531" y="561" type="curve"/>
      <point x="486" y="551"/>
      <point x="384" y="542"/>
      <point x="293" y="542" type="curve" smooth="yes"/>
      <point x="215" y="542"/>
      <point x="139" y="543"/>
      <point x="56" y="547" type="curve"/>
      <point x="34" y="508"/>
      <point x="22" y="465"/>
      <point x="22" y="421" type="curve"/>
    </contour>
    <component base="I" xOffset="28"/>
    <component base="I" xOffset="277"/>
  </outline>
</glyph>
<glyph name="minus" format="1">
  <advance width="533"/>
  <unicode hex="2212"/>
  <outline>
    <contour>
      <point x="134" y="224"/>
      <point x="200" y="226"/>
      <point x="267" y="226" type="curve" smooth="yes"/>
      <point x="333" y="226"/>
      <point x="400" y="224"/>
      <point x="466" y="221" type="curve"/>
      <point x="468" y="236"/>
      <point x="470" y="253"/>
      <point x="470" y="266" type="curve" smooth="yes"/>
      <point x="470" y="281"/>
      <point x="468" y="296"/>
      <point x="466" y="310" type="curve"/>
      <point x="400" y="307"/>
      <point x="333" y="306"/>
      <point x="267" y="306" type="curve" smooth="yes"/>
      <point x="200" y="306"/>
      <point x="134" y="307"/>
      <point x="67" y="310" type="curve"/>
      <point x="64" y="295"/>
      <point x="62" y="279"/>
      <point x="62" y="265" type="curve" smooth="yes"/>
      <point x="62" y="251"/>
      <point x="64" y="235"/>
      <point x="67" y="221" type="curve"/>
    </contour>
  </outline>
</glyph>
<glyph name="integral" format="1">
  <advance width="351"/>
  <unicode hex="222B"/>
  <outline>
    <contour>
      <point x="187" y="-198"/>
      <point x="234" y="-78"/>
      <point x="234" y="33" type="curve" smooth="yes"/>
      <point x="234" y="134"/>
      <point x="230" y="214"/>
      <point x="230" y="281" type="curve" smooth="yes"/>
      <point x="230" y="451"/>
      <point x="236" y="495"/>
      <point x="265" y="516" type="curve"/>
      <point x="294" y="513"/>
      <point x="330" y="495"/>
      <point x="379" y="460" type="curve"/>
      <point x="393" y="485"/>
      <point x="408" y="543"/>
      <point x="408" y="571" type="curve"/>
      <point x="377" y="580"/>
      <point x="341" y="585"/>
      <point x="302" y="585" type="curve" smooth="yes"/>
      <point x="163" y="585"/>
      <point x="116" y="465"/>
      <point x="116" y="354" type="curve" smooth="yes"/>
      <point x="116" y="254"/>
      <point x="120" y="174"/>
      <point x="120" y="107" type="curve" smooth="yes"/>
      <point x="120" y="-64"/>
      <point x="114" y="-108"/>
      <point x="85" y="-129" type="curve"/>
      <point x="56" y="-126"/>
      <point x="20" y="-108"/>
      <point x="-29" y="-73" type="curve"/>
      <point x="-44" y="-98"/>
      <point x="-58" y="-156"/>
      <point x="-58" y="-184" type="curve"/>
      <point x="-28" y="-193"/>
      <point x="9" y="-198"/>
      <point x="48" y="-198" type="curve" smooth="yes"/>
    </contour>
  </outline>
</glyph>
<glyph name="lozenge" format="1">
  <advance width="501"/>
  <unicode hex="25CA"/>
  <outline>
    <contour>
      <point x="273" y="-8"/>
      <point x="295" y="-5"/>
      <point x="316" y="0" type="curve"/>
      <point x="356" y="88"/>
      <point x="406" y="176"/>
      <point x="466" y="264" type="curve"/>
      <point x="406" y="352"/>
      <point x="356" y="439"/>
      <point x="316" y="527" type="curve"/>
      <point x="295" y="532"/>
      <point x="273" y="535"/>
      <point x="251" y="535" type="curve" smooth="yes"/>
      <point x="229" y="535"/>
      <point x="207" y="532"/>
      <point x="185" y="527" type="curve"/>
      <point x="145" y="439"/>
      <point x="95" y="352"/>
      <point x="35" y="264" type="curve"/>
      <point x="95" y="176"/>
      <point x="145" y="88"/>
      <point x="185" y="0" type="curve"/>
      <point x="207" y="-5"/>
      <point x="229" y="-8"/>
      <point x="251" y="-8" type="curve" smooth="yes"/>
    </contour>
    <contour>
      <point x="148" y="264" type="line"/>
      <point x="250" y="443" type="line"/>
      <point x="352" y="264" type="line"/>
      <point x="250" y="85" type="line"/>
    </contour>
  </outline>
</glyph>
<glyph name="fl" format="1">
  <advance width="527"/>
  <unicode hex="FB02"/>
  <outline>
    <contour>
      <point x="171" y="-82"/>
      <point x="202" y="-32"/>
      <point x="202" y="63" type="curve" smooth="yes"/>
      <point x="202" y="109"/>
      <point x="195" y="180"/>
      <point x="195" y="281" type="curve" smooth="yes"/>
      <point x="195" y="333" type="line"/>
      <point x="237" y="332"/>
      <point x="266" y="328"/>
      <point x="289" y="321" type="curve"/>
      <point x="301" y="349"/>
      <point x="306" y="372"/>
      <point x="306" y="404" type="curve"/>
      <point x="282" y="400"/>
      <point x="244" y="397"/>
      <point x="197" y="396" type="curve"/>
      <point x="201" y="474"/>
      <point x="210" y="501"/>
      <point x="230" y="516" type="curve"/>
      <point x="264" y="514"/>
      <point x="298" y="501"/>
      <point x="343" y="477" type="curve"/>
      <point x="349" y="433"/>
      <point x="352" y="374"/>
      <point x="352" y="297" type="curve" smooth="yes"/>
      <point x="352" y="208"/>
      <point x="348" y="144"/>
      <point x="348" y="73" type="curve" smooth="yes"/>
      <point x="348" y="10"/>
      <point x="367" y="-9"/>
      <point x="415" y="-9" type="curve" smooth="yes"/>
      <point x="436" y="-9"/>
      <point x="470" y="0"/>
      <point x="497" y="27" type="curve"/>
      <point x="466" y="61"/>
      <point x="458" y="84"/>
      <point x="458" y="192" type="curve" smooth="yes"/>
      <point x="458" y="356"/>
      <point x="463" y="485"/>
      <point x="470" y="547" type="curve"/>
      <point x="411" y="572"/>
      <point x="347" y="585"/>
      <point x="273" y="585" type="curve" smooth="yes"/>
      <point x="164" y="585"/>
      <point x="99" y="515"/>
      <point x="82" y="407" type="curve"/>
      <point x="62" y="393"/>
      <point x="41" y="380"/>
      <point x="17" y="368" type="curve"/>
      <point x="17" y="338"/>
      <point x="27" y="331"/>
      <point x="82" y="330" type="curve"/>
      <point x="97" y="-13"/>
      <point x="91" y="-65"/>
      <point x="40" y="-137" type="curve"/>
      <point x="65" y="-159" type="line"/>
    </contour>
  </outline>
</glyph>
<glyph name="eight.dnom" format="1">
  <advance width="356"/>
  <outline>
    <contour>
      <point x="251" y="-6"/>
      <point x="312" y="28"/>
      <point x="312" y="81" type="curve" smooth="yes"/>
      <point x="312" y="113"/>
      <point x="290" y="131"/>
      <point x="261" y="143" type="curve"/>
      <point x="288" y="160"/>
      <point x="303" y="182"/>
      <point x="303" y="207" type="curve" smooth="yes"/>
      <point x="303" y="249"/>
      <point x="257" y="277"/>
      <point x="190" y="277" type="curve" smooth="yes"/>
      <point x="111" y="277"/>
      <point x="54" y="243"/>
      <point x="54" y="193" type="curve" smooth="yes"/>
      <point x="54" y="165"/>
      <point x="70" y="148"/>
      <point x="91" y="135" type="curve"/>
      <point x="62" y="118"/>
      <point x="45" y="96"/>
      <point x="45" y="70" type="curve" smooth="yes"/>
      <point x="45" y="25"/>
      <point x="96" y="-6"/>
      <point x="170" y="-6" type="curve" smooth="yes"/>
    </contour>
    <contour>
      <point x="147" y="41"/>
      <point x="128" y="55"/>
      <point x="128" y="77" type="curve" smooth="yes"/>
      <point x="128" y="91"/>
      <point x="135" y="103"/>
      <point x="146" y="112" type="curve"/>
      <point x="188" y="99"/>
      <point x="228" y="91"/>
      <point x="228" y="67" type="curve" smooth="yes"/>
      <point x="228" y="51"/>
      <point x="209" y="41"/>
      <point x="176" y="41" type="curve" smooth="yes"/>
    </contour>
    <contour>
      <point x="166" y="171"/>
      <point x="133" y="179"/>
      <point x="133" y="203" type="curve" smooth="yes"/>
      <point x="133" y="222"/>
      <point x="154" y="234"/>
      <point x="183" y="234" type="curve"/>
      <point x="208" y="230"/>
      <point x="222" y="218"/>
      <point x="222" y="201" type="curve" smooth="yes"/>
      <point x="222" y="184"/>
      <point x="215" y="170"/>
      <point x="203" y="161" type="curve"/>
    </contour>
  </outline>
</glyph>
<glyph name="f_f_i" format="1">
  <advance width="799"/>
  <outline>
    <contour>
      <point x="171" y="-82"/>
      <point x="202" y="-32"/>
      <point x="202" y="63" type="curve" smooth="yes"/>
      <point x="202" y="109"/>
      <point x="195" y="180"/>
      <point x="195" y="281" type="curve" smooth="yes"/>
      <point x="195" y="333" type="line"/>
      <point x="354" y="333" type="line"/>
      <point x="369" y="-13"/>
      <point x="363" y="-65"/>
      <point x="312" y="-137" type="curve"/>
      <point x="338" y="-159" type="line"/>
      <point x="443" y="-82"/>
      <point x="474" y="-32"/>
      <point x="474" y="63" type="curve" smooth="yes"/>
      <point x="474" y="109"/>
      <point x="467" y="180"/>
      <point x="467" y="281" type="curve" smooth="yes"/>
      <point x="467" y="333" type="line"/>
      <point x="623" y="333" type="line"/>
      <point x="624" y="314"/>
      <point x="624" y="293"/>
      <point x="624" y="272" type="curve" smooth="yes"/>
      <point x="624" y="208"/>
      <point x="620" y="144"/>
      <point x="620" y="73" type="curve" smooth="yes"/>
      <point x="620" y="10"/>
      <point x="639" y="-9"/>
      <point x="687" y="-9" type="curve" smooth="yes"/>
      <point x="708" y="-9"/>
      <point x="742" y="0"/>
      <point x="769" y="27" type="curve"/>
      <point x="738" y="61"/>
      <point x="730" y="84"/>
      <point x="730" y="192" type="curve" smooth="yes"/>
      <point x="730" y="294"/>
      <point x="735" y="379"/>
      <point x="742" y="417" type="curve"/>
      <point x="698" y="417"/>
      <point x="660" y="413"/>
      <point x="615" y="397" type="curve"/>
      <point x="469" y="397" type="line"/>
      <point x="473" y="474"/>
      <point x="482" y="501"/>
      <point x="503" y="516" type="curve"/>
      <point x="540" y="513"/>
      <point x="587" y="491"/>
      <point x="651" y="450" type="curve"/>
      <point x="668" y="475"/>
      <point x="685" y="533"/>
      <point x="685" y="561" type="curve"/>
      <point x="643" y="577"/>
      <point x="594" y="585"/>
      <point x="539" y="585" type="curve" smooth="yes"/>
      <point x="497" y="585"/>
      <point x="460" y="572"/>
      <point x="430" y="548" type="curve"/>
      <point x="382" y="572"/>
      <point x="327" y="585"/>
      <point x="267" y="585" type="curve" smooth="yes"/>
      <point x="171" y="585"/>
      <point x="99" y="515"/>
      <point x="82" y="407" type="curve"/>
      <point x="62" y="393"/>
      <point x="41" y="380"/>
      <point x="17" y="368" type="curve"/>
      <point x="17" y="338"/>
      <point x="27" y="331"/>
      <point x="82" y="330" type="curve"/>
      <point x="97" y="-13"/>
      <point x="91" y="-65"/>
      <point x="40" y="-137" type="curve"/>
      <point x="65" y="-159" type="line"/>
    </contour>
    <contour>
      <point x="203" y="464"/>
      <point x="215" y="487"/>
      <point x="240" y="501" type="curve"/>
      <point x="388" y="501" type="line"/>
      <point x="370" y="473"/>
      <point x="357" y="437"/>
      <point x="352" y="397" type="curve"/>
      <point x="198" y="397" type="line"/>
    </contour>
  </outline>
</glyph>
<glyph name="five.dnom" format="1">
  <advance width="356"/>
  <outline>
    <contour>
      <point x="246" y="-6"/>
      <point x="290" y="26"/>
      <point x="290" y="85" type="curve" smooth="yes"/>
      <point x="290" y="130"/>
      <point x="251" y="168"/>
      <point x="192" y="168" type="curve" smooth="yes"/>
      <point x="163" y="168"/>
      <point x="135" y="160"/>
      <point x="113" y="145" type="curve"/>
      <point x="117" y="201" type="line"/>
      <point x="204" y="201" type="line" smooth="yes"/>
      <point x="233" y="201"/>
      <point x="250" y="198"/>
      <point x="262" y="192" type="curve"/>
      <point x="275" y="212"/>
      <point x="282" y="246"/>
      <point x="282" y="274" type="curve"/>
      <point x="263" y="270"/>
      <point x="225" y="268"/>
      <point x="181" y="268" type="curve" smooth="yes"/>
      <point x="129" y="268"/>
      <point x="101" y="270"/>
      <point x="87" y="274" type="curve"/>
      <point x="78" y="119" type="line"/>
      <point x="111" y="102" type="line"/>
      <point x="133" y="118"/>
      <point x="157" y="128"/>
      <point x="171" y="128" type="curve"/>
      <point x="198" y="118"/>
      <point x="207" y="104"/>
      <point x="207" y="86" type="curve" smooth="yes"/>
      <point x="207" y="59"/>
      <point x="186" y="43"/>
      <point x="150" y="43" type="curve" smooth="yes"/>
      <point x="116" y="43"/>
      <point x="86" y="55"/>
      <point x="68" y="74" type="curve"/>
      <point x="62" y="56"/>
      <point x="59" y="40"/>
      <point x="59" y="18" type="curve"/>
      <point x="89" y="3"/>
      <point x="124" y="-6"/>
      <point x="162" y="-6" type="curve" smooth="yes"/>
    </contour>
  </outline>
</glyph>
<glyph name="three.dnom" format="1">
  <advance width="356"/>
  <outline>
    <contour>
      <point x="249" y="-6"/>
      <point x="296" y="27"/>
      <point x="296" y="86" type="curve" smooth="yes"/>
      <point x="296" y="120"/>
      <point x="269" y="153"/>
      <point x="219" y="163" type="curve"/>
      <point x="264" y="189"/>
      <point x="288" y="208"/>
      <point x="288" y="242" type="curve" smooth="yes"/>
      <point x="288" y="257"/>
      <point x="280" y="274"/>
      <point x="270" y="284" type="curve"/>
      <point x="247" y="274"/>
      <point x="213" y="268"/>
      <point x="159" y="268" type="curve" smooth="yes"/>
      <point x="114" y="268"/>
      <point x="79" y="270"/>
      <point x="62" y="274" type="curve"/>
      <point x="62" y="245"/>
      <point x="69" y="213"/>
      <point x="80" y="192" type="curve"/>
      <point x="93" y="198"/>
      <point x="112" y="201"/>
      <point x="145" y="201" type="curve" smooth="yes"/>
      <point x="219" y="201" type="line"/>
      <point x="141" y="151" type="line" smooth="yes"/>
      <point x="120" y="138"/>
      <point x="113" y="126"/>
      <point x="112" y="119" type="curve" smooth="yes"/>
      <point x="112" y="111"/>
      <point x="134" y="100"/>
      <point x="148" y="100" type="curve"/>
      <point x="157" y="116"/>
      <point x="174" y="123"/>
      <point x="180" y="123" type="curve"/>
      <point x="201" y="117"/>
      <point x="213" y="102"/>
      <point x="213" y="84" type="curve" smooth="yes"/>
      <point x="213" y="57"/>
      <point x="190" y="43"/>
      <point x="150" y="43" type="curve" smooth="yes"/>
      <point x="114" y="43"/>
      <point x="82" y="55"/>
      <point x="65" y="74" type="curve"/>
      <point x="57" y="56"/>
      <point x="54" y="39"/>
      <point x="54" y="18" type="curve"/>
      <point x="85" y="2"/>
      <point x="122" y="-6"/>
      <point x="162" y="-6" type="curve" smooth="yes"/>
    </contour>
  </outline>
</glyph>
